<?xml version="1.0" encoding="UTF-8"?>
<svg version="1.1" xmlns="http://www.w3.org/2000/svg" width="396" height="115">
<path d="M0 0 C0.7734375 -0.00257812 1.546875 -0.00515625 2.34375 -0.0078125 C4.5 0.125 4.5 0.125 7.5 1.125 C9.078125 3.828125 9.078125 3.828125 10.75 7.375 C11.35881622 8.64412353 11.96954517 9.91233099 12.58203125 11.1796875 C13.05116943 12.15566895 13.05116943 12.15566895 13.52978516 13.15136719 C15.08353617 16.31204237 16.75474664 19.40657596 18.4375 22.5 C19.02402344 23.58023438 19.61054687 24.66046875 20.21484375 25.7734375 C20.63894531 26.54945312 21.06304687 27.32546875 21.5 28.125 C24.65310318 23.61754378 27.16591356 19.008057 29.5625 14.0625 C34.34155466 4.25861073 34.34155466 4.25861073 36.5 1.125 C41.45532954 -0.52677651 46.4288138 0.39249533 51.5 1.125 C52.625 6.875 52.625 6.875 51.5 9.125 C50.18 9.125 48.86 9.125 47.5 9.125 C47.5 22.325 47.5 35.525 47.5 49.125 C48.82 49.125 50.14 49.125 51.5 49.125 C52.125 52 52.125 52 52.5 55.125 C50.00789561 57.61710439 48.49639212 57.38515661 45.08984375 57.3984375 C44.05537109 57.38683594 44.05537109 57.38683594 43 57.375 C42.31035156 57.38273437 41.62070313 57.39046875 40.91015625 57.3984375 C35.75333293 57.37833293 35.75333293 57.37833293 33.5 55.125 C33.875 52 33.875 52 34.5 49.125 C35.82 49.125 37.14 49.125 38.5 49.125 C38.17 39.225 37.84 29.325 37.5 19.125 C36.076875 21.64125 34.65375 24.1575 33.1875 26.75 C32.5236731 27.92103271 32.5236731 27.92103271 31.84643555 29.11572266 C30.08176921 32.24469888 28.37674185 35.37151629 26.76953125 38.5859375 C25.5 41.125 25.5 41.125 24.5 42.125 C21.76171875 42.6953125 21.76171875 42.6953125 18.5 42.125 C16.27232222 39.70268607 14.8404831 36.89863876 13.3125 34 C12.88775391 33.23945312 12.46300781 32.47890625 12.02539062 31.6953125 C9.73164295 27.55729181 7.61735916 23.35971832 5.5 19.125 C5.17 29.025 4.84 38.925 4.5 49.125 C6.15 49.455 7.8 49.785 9.5 50.125 C9.5 52.105 9.5 54.085 9.5 56.125 C3.82309732 58.73330664 -1.49120759 58.13840792 -7.5 57.125 C-8.5 56.125 -8.5 56.125 -8.5625 53.0625 C-8.541875 52.093125 -8.52125 51.12375 -8.5 50.125 C-6.025 49.63 -6.025 49.63 -3.5 49.125 C-3.5721875 48.51398438 -3.644375 47.90296875 -3.71875 47.2734375 C-4.44717057 40.09040131 -4.61069332 32.96653002 -4.625 25.75 C-4.62951172 24.79915527 -4.63402344 23.84831055 -4.63867188 22.86865234 C-4.62873142 18.17427404 -4.47266819 13.7413141 -3.5 9.125 C-6.47 8.63 -6.47 8.63 -9.5 8.125 C-8.6875 4.6875 -8.6875 4.6875 -7.5 1.125 C-4.68772378 0.18757459 -2.91253156 -0.00970844 0 0 Z " fill="#787878" transform="translate(104.5,15.875)"/>
<path d="M0 0 C5.5977621 4.36549024 8.85258619 10.83579717 12.5 16.8125 C13.15097656 17.86759766 13.80195313 18.92269531 14.47265625 20.00976562 C15.69651784 21.99390487 16.91758005 23.97977589 18.13476562 25.96801758 C20.40422241 29.65707305 22.70445202 33.32712322 25 37 C25.33 27.76 25.66 18.52 26 9 C24.68 8.67 23.36 8.34 22 8 C22 5.69 22 3.38 22 1 C27.80198443 -0.13517087 33.16351642 -0.00629027 39 1 C40 2 40 2 40.1875 4.4375 C40 7 40 7 38 9 C37.01 9 36.02 9 35 9 C35.00222061 9.58659897 35.00444122 10.17319794 35.00672913 10.77757263 C35.0287821 16.86025384 35.04390664 22.94292377 35.05493164 29.02563477 C35.05997325 31.29842591 35.06680637 33.5712138 35.07543945 35.84399414 C35.08751261 39.10303551 35.09322987 42.36203417 35.09765625 45.62109375 C35.10281754 46.64400009 35.10797882 47.66690643 35.11329651 48.72080994 C35.11337204 49.66170975 35.11344757 50.60260956 35.11352539 51.57202148 C35.115746 52.40475082 35.11796661 53.23748016 35.12025452 54.09544373 C35 56 35 56 34 57 C27.60398924 57.47377857 27.60398924 57.47377857 25.49609375 55.8203125 C23.61203519 53.52795926 22.02690568 51.1309744 20.4375 48.625 C19.83808594 47.68914063 19.23867187 46.75328125 18.62109375 45.7890625 C17.13807941 43.23756312 16.01113571 40.76678927 15 38 C14.34 38 13.68 38 13 38 C12.484375 37.071875 11.96875 36.14375 11.4375 35.1875 C8.43905922 30.03633251 5.19993888 25.02847539 2 20 C1.67 29.57 1.34 39.14 1 49 C2.65 49.33 4.3 49.66 6 50 C6 51.98 6 53.96 6 56 C5.34 56 4.68 56 4 56 C4 56.66 4 57.32 4 58 C1.70858714 58.05384521 -0.58318188 58.09272087 -2.875 58.125 C-4.15117187 58.14820313 -5.42734375 58.17140625 -6.7421875 58.1953125 C-10 58 -10 58 -12 56 C-12.625 53.375 -12.625 53.375 -13 51 C-12.1843457 50.48808105 -11.36869141 49.97616211 -10.52832031 49.44873047 C-7.69670874 47.19103805 -7.69670874 47.19103805 -7.44824219 43.70361328 C-7.48079102 42.42212402 -7.51333984 41.14063477 -7.546875 39.8203125 C-7.55632141 39.12992889 -7.56576782 38.43954529 -7.57550049 37.72824097 C-7.61000895 35.525948 -7.67869241 33.32638083 -7.75 31.125 C-7.80017874 28.93112755 -7.84321996 26.73729074 -7.88165283 24.54318237 C-7.91992728 22.54689963 -7.97656224 20.55099389 -8.03417969 18.55517578 C-8.00235096 15.24453305 -7.64555735 12.24089769 -7 9 C-8.65 8.67 -10.3 8.34 -12 8 C-13 5 -13 5 -12.25 2.875 C-9.73769145 -0.89346282 -4.13698187 -1.01530324 0 0 Z " fill="#6C6C6C" transform="translate(176,16)"/>
<path d="M0 0 C1.1446875 -0.00257812 2.289375 -0.00515625 3.46875 -0.0078125 C6.5 0.125 6.5 0.125 9.5 1.125 C10.375 2.875 10.375 2.875 10.5 5.125 C9.51 6.775 8.52 8.425 7.5 10.125 C10.14 13.755 12.78 17.385 15.5 21.125 C18.16515506 18.45984494 20.17368825 16.37411697 22.25 13.375 C22.9925 12.3025 23.735 11.23 24.5 10.125 C23.984375 9.568125 23.46875 9.01125 22.9375 8.4375 C21.5 6.125 21.5 6.125 21.8125 3.375 C22.039375 2.6325 22.26625 1.89 22.5 1.125 C28.53503763 -0.38375941 34.39738369 0.48313906 40.5 1.125 C41.125 3.4375 41.125 3.4375 41.5 6.125 C39.5 9.125 39.5 9.125 37.57714844 9.56030273 C34.69814495 10.34299374 33.95721502 11.74118253 32.265625 14.16015625 C31.69199219 14.96904297 31.11835938 15.77792969 30.52734375 16.61132812 C29.94082031 17.46146484 29.35429687 18.31160156 28.75 19.1875 C28.14800781 20.04150391 27.54601562 20.89550781 26.92578125 21.77539062 C25.44061255 23.88527314 23.96596854 26.001753 22.5 28.125 C25.18358063 33.00254724 28.06480637 37.51116242 31.4375 41.9375 C31.85451172 42.50919922 32.27152344 43.08089844 32.70117188 43.66992188 C35.29582379 47.08267115 37.34500985 48.95803497 41.5 50.125 C41.5 52.105 41.5 54.085 41.5 56.125 C37.42276266 58.07531692 34.18307578 58.34081971 29.6875 58.25 C28.52605469 58.23195312 27.36460937 58.21390625 26.16796875 58.1953125 C25.28753906 58.17210937 24.40710938 58.14890625 23.5 58.125 C23.5 57.465 23.5 56.805 23.5 56.125 C22.84 56.125 22.18 56.125 21.5 56.125 C21.3125 53.25 21.3125 53.25 21.5 50.125 C22.49 49.465 23.48 48.805 24.5 48.125 C21.53 44.165 18.56 40.205 15.5 36.125 C13.3034375 38.785625 13.3034375 38.785625 11.0625 41.5 C10.23878906 42.49773438 9.41507812 43.49546875 8.56640625 44.5234375 C6.51584166 46.92155295 6.51584166 46.92155295 5.5 49.125 C6.985 49.62 6.985 49.62 8.5 50.125 C8.54254356 52.12454746 8.54080783 54.12541636 8.5 56.125 C7.5 57.125 7.5 57.125 3.68359375 57.22265625 C2.10153318 57.21598089 0.51948841 57.20401875 -1.0625 57.1875 C-1.86880859 57.18298828 -2.67511719 57.17847656 -3.50585938 57.17382812 C-5.50393756 57.16200518 -7.50197783 57.14406914 -9.5 57.125 C-11.5703125 53.390625 -11.5703125 53.390625 -10.9375 51 C-9.5 49.125 -9.5 49.125 -7.23828125 48.41015625 C-3.52665109 46.66817861 -1.60703923 43.91607918 0.75 40.6875 C1.19601562 40.10162109 1.64203125 39.51574219 2.1015625 38.91210938 C4.028976 36.33930439 5.47711007 34.1936698 6.5 31.125 C7.16 30.795 7.82 30.465 8.5 30.125 C7.90732592 27.05489802 7.0110462 25.18569339 5.03125 22.77734375 C4.54269531 22.17212891 4.05414063 21.56691406 3.55078125 20.94335938 C3.03902344 20.32267578 2.52726562 19.70199219 2 19.0625 C0.98576941 17.82472992 -0.02480786 16.58395495 -1.03125 15.33984375 C-1.48048828 14.79448975 -1.92972656 14.24913574 -2.39257812 13.68725586 C-3.5 12.125 -3.5 12.125 -4.5 9.125 C-6.15 8.795 -7.8 8.465 -9.5 8.125 C-10.625 3.375 -10.625 3.375 -9.5 1.125 C-6.13849548 0.00449849 -3.53713274 -0.00796652 0 0 Z " fill="#7D7D7D" transform="translate(316.5,15.875)"/>
<path d="M0 0 C3.33096138 1.98455173 5.94218342 4.38928105 8.5 7.3125 C9.056875 7.93125 9.61375 8.55 10.1875 9.1875 C15.03699065 17.03905629 14.31192326 27.38787184 13.10546875 36.19140625 C11.46598777 42.95029879 7.81288326 47.88359392 2.5 52.3125 C-4.4963957 56.5468602 -11.87764288 57.66110593 -19.8125 55.7578125 C-26.66970697 53.25778912 -31.48672849 48.29795859 -35.5 42.3125 C-36.81946048 38.96270693 -37.29273194 35.89363144 -37.5 32.3125 C-37.56703125 31.57257812 -37.6340625 30.83265625 -37.703125 30.0703125 C-38.1226352 21.6501435 -35.95357305 12.82649004 -30.5 6.3125 C-22.51886774 -1.76596314 -10.781982 -5.06302197 0 0 Z M-23.75 11.5625 C-28.46809101 18.97664302 -28.797951 28.30592382 -26.96484375 36.7890625 C-25.59382682 40.78973484 -23.83357531 43.70814429 -20.5 46.3125 C-15.08818405 48.11643865 -8.90731114 48.23444895 -3.5625 46.1875 C1.56834172 41.52309844 3.993356 36.07673126 4.72265625 29.21875 C5.0002278 22.3639396 3.7659332 15.4379251 -0.3125 9.8125 C-8.12260337 4.45700055 -17.01093329 4.82343329 -23.75 11.5625 Z " fill="#7B7B7B" transform="translate(74.5,17.6875)"/>
<path d="M0 0 C1.45765791 2.38442939 2.34303292 4.26940518 3.25390625 6.859375 C3.65620705 7.90970917 3.65620705 7.90970917 4.06663513 8.98126221 C4.92177687 11.22955114 5.74242813 13.4887139 6.5625 15.75 C7.11689058 17.22610744 7.67351019 18.70137974 8.23242188 20.17578125 C9.32391842 23.06472699 10.40075898 25.95845098 11.46533203 28.85742188 C13.28111931 33.78970037 15.20154964 38.6790965 17.13256836 43.56738281 C18 46 18 46 18 48 C19.65 48.33 21.3 48.66 23 49 C23.1875 51.875 23.1875 51.875 23 55 C19.20821482 57.52785679 17.42272733 57.10251011 12.9375 56.75 C11.68839844 56.66234375 10.43929687 56.5746875 9.15234375 56.484375 C6 56 6 56 4 54 C4.375 50.875 4.375 50.875 5 48 C5.99 48 6.98 48 8 48 C7.505 46.906875 7.01 45.81375 6.5 44.6875 C5 41 5 41 5 38 C4.01 38.495 4.01 38.495 3 39 C1.62451844 39.08308638 0.24514204 39.10736016 -1.1328125 39.09765625 C-1.93847656 39.09443359 -2.74414062 39.09121094 -3.57421875 39.08789062 C-4.83685547 39.07532227 -4.83685547 39.07532227 -6.125 39.0625 C-7.39923828 39.05573242 -7.39923828 39.05573242 -8.69921875 39.04882812 C-10.79950909 39.03702874 -12.8997633 39.01909306 -15 39 C-15.66 41.97 -16.32 44.94 -17 48 C-16.01 48 -15.02 48 -14 48 C-13.95758277 50.33294775 -13.95907063 52.66702567 -14 55 C-15 56 -15 56 -18.59765625 56.09765625 C-20.08596867 56.0909822 -21.57426432 56.07902183 -23.0625 56.0625 C-24.20041992 56.05573242 -24.20041992 56.05573242 -25.36132812 56.04882812 C-27.24091871 56.0370068 -29.12046899 56.01907078 -31 56 C-32.125 50.25 -32.125 50.25 -31 48 C-30.36884277 47.92064209 -29.73768555 47.84128418 -29.08740234 47.75952148 C-26.70066069 47.16520923 -26.70066069 47.16520923 -25.71337891 44.35180664 C-25.34647949 43.19543701 -24.97958008 42.03906738 -24.6015625 40.84765625 C-24.17802236 39.56333154 -23.75250365 38.27965794 -23.32519531 36.99658203 C-23.1086731 36.33394348 -22.89215088 35.67130493 -22.66906738 34.98858643 C-20.78736433 29.39583262 -18.53017163 23.92904309 -16.375 18.4375 C-15.89804687 17.20708984 -15.42109375 15.97667969 -14.9296875 14.70898438 C-14.23359375 12.93297852 -14.23359375 12.93297852 -13.5234375 11.12109375 C-13.11013184 10.0633374 -12.69682617 9.00558105 -12.27099609 7.91577148 C-9.40847305 1.34890389 -7.64550491 -2.46179316 0 0 Z M-5 15 C-7.25861997 19.93387858 -9.40109514 24.80355921 -11 30 C-7.04 30 -3.08 30 1 30 C-0.12987847 24.35060767 -1.80288396 19.79567406 -5 15 Z " fill="#7D7D7D" transform="translate(278,17)"/>
<path d="M0 0 C1.56125851 0.00399299 3.12251789 0.01875614 4.68359375 0.04296875 C5.47701172 0.04361328 6.27042969 0.04425781 7.08789062 0.04492188 C12.98083853 0.09021353 12.98083853 0.09021353 14.12109375 1.23046875 C14.30859375 3.66796875 14.30859375 3.66796875 14.12109375 6.23046875 C13.46109375 6.89046875 12.80109375 7.55046875 12.12109375 8.23046875 C11.13109375 8.23046875 10.14109375 8.23046875 9.12109375 8.23046875 C9.12109375 21.43046875 9.12109375 34.63046875 9.12109375 48.23046875 C10.44109375 48.23046875 11.76109375 48.23046875 13.12109375 48.23046875 C13.74609375 51.10546875 13.74609375 51.10546875 14.12109375 54.23046875 C11.27495351 57.07660899 8.31740233 56.68625951 4.49609375 56.85546875 C3.43648437 56.91347656 3.43648437 56.91347656 2.35546875 56.97265625 C0.61110851 57.06694599 -1.13386316 57.14979766 -2.87890625 57.23046875 C-2.87890625 56.57046875 -2.87890625 55.91046875 -2.87890625 55.23046875 C-3.53890625 55.23046875 -4.19890625 55.23046875 -4.87890625 55.23046875 C-4.87890625 53.25046875 -4.87890625 51.27046875 -4.87890625 49.23046875 C-2.40390625 48.73546875 -2.40390625 48.73546875 0.12109375 48.23046875 C-0.04132813 47.15796875 -0.20375 46.08546875 -0.37109375 44.98046875 C-1.0659637 39.40186622 -1.02475053 33.84452728 -1.00390625 28.23046875 C-1.00777344 27.18890625 -1.01164063 26.14734375 -1.015625 25.07421875 C-1.00841536 19.36418518 -0.7340525 13.87714874 0.12109375 8.23046875 C-1.52890625 7.90046875 -3.17890625 7.57046875 -4.87890625 7.23046875 C-5.50390625 4.85546875 -5.50390625 4.85546875 -5.87890625 2.23046875 C-3.87890625 0.23046875 -3.87890625 0.23046875 0 0 Z " fill="#787878" transform="translate(226.87890625,16.76953125)"/>
<path d="M0 0 C0.90492188 0.02320312 1.80984375 0.04640625 2.7421875 0.0703125 C4.10730469 0.09738281 4.10730469 0.09738281 5.5 0.125 C6.19867188 0.14820312 6.89734375 0.17140625 7.6171875 0.1953125 C7.47598036 2.13315515 7.32905877 4.07058205 7.1796875 6.0078125 C7.09847656 7.08675781 7.01726562 8.16570312 6.93359375 9.27734375 C6.6171875 12.1953125 6.6171875 12.1953125 5.6171875 15.1953125 C5.9471875 15.5253125 6.2771875 15.8553125 6.6171875 16.1953125 C6.75833911 18.86590101 6.65965857 21.51963488 6.6171875 24.1953125 C4.04505616 25.81480261 2.94049591 26.23940001 -0.1328125 25.8203125 C-0.8753125 25.6140625 -1.6178125 25.4078125 -2.3828125 25.1953125 C-2.0528125 23.8753125 -1.7228125 22.5553125 -1.3828125 21.1953125 C-0.0628125 21.1953125 1.2571875 21.1953125 2.6171875 21.1953125 C2.6171875 20.5353125 2.6171875 19.8753125 2.6171875 19.1953125 C1.6271875 19.5253125 0.6371875 19.8553125 -0.3828125 20.1953125 C-2.5703125 19.7578125 -2.5703125 19.7578125 -4.3828125 19.1953125 C-4.43661828 16.40339045 -4.47638919 13.6124984 -4.5078125 10.8203125 C-4.52457031 10.02625 -4.54132813 9.2321875 -4.55859375 8.4140625 C-4.57616723 6.34039235 -4.48616418 4.26648009 -4.3828125 2.1953125 C-2.3828125 0.1953125 -2.3828125 0.1953125 0 0 Z M-0.3828125 4.1953125 C-0.3828125 6.1753125 -0.3828125 8.1553125 -0.3828125 10.1953125 C0.6071875 10.1953125 1.5971875 10.1953125 2.6171875 10.1953125 C2.6171875 8.5453125 2.6171875 6.8953125 2.6171875 5.1953125 C1.6271875 4.8653125 0.6371875 4.5353125 -0.3828125 4.1953125 Z " fill="#B4B4B4" transform="translate(194.3828125,88.8046875)"/>
<path d="M0 0 C1.98 0.495 1.98 0.495 4 1 C4.33 4.63 4.66 8.26 5 12 C5.33 8.04 5.66 4.08 6 0 C7.65 0.33 9.3 0.66 11 1 C11 6.94 11 12.88 11 19 C7.7 19 4.4 19 1 19 C-1.50413785 12.51870203 -0.82810601 6.81508864 0 0 Z " fill="#D5D5D5" transform="translate(246,89)"/>
<path d="M0 0 C7.75 -0.125 7.75 -0.125 10 1 C10 6.94 10 12.88 10 19 C8.68 19 7.36 19 6 19 C6 14.05 6 9.1 6 4 C5.34 4 4.68 4 4 4 C4 8.95 4 13.9 4 19 C2.35 18.67 0.7 18.34 -1 18 C-2.51708428 5.33029613 -2.51708428 5.33029613 0 0 Z " fill="#DADADA" transform="translate(177,89)"/>
<path d="M0 0 C0.8146875 0.00257812 1.629375 0.00515625 2.46875 0.0078125 C3.2834375 0.00523438 4.098125 0.00265625 4.9375 0 C6.96875 0.1328125 6.96875 0.1328125 7.96875 1.1328125 C8.05506874 2.47548663 8.07581473 3.82255572 8.06640625 5.16796875 C8.06318359 5.97685547 8.05996094 6.78574219 8.05664062 7.61914062 C8.04826172 8.46927734 8.03988281 9.31941406 8.03125 10.1953125 C8.02673828 11.04931641 8.02222656 11.90332031 8.01757812 12.78320312 C8.00575373 14.89976913 7.98781769 17.01629935 7.96875 19.1328125 C6.64875 19.1328125 5.32875 19.1328125 3.96875 19.1328125 C3.96875 14.1828125 3.96875 9.2328125 3.96875 4.1328125 C3.30875 4.1328125 2.64875 4.1328125 1.96875 4.1328125 C1.96875 9.0828125 1.96875 14.0328125 1.96875 19.1328125 C0.31875 18.8028125 -1.33125 18.4728125 -3.03125 18.1328125 C-3.05809312 15.32024969 -3.07801188 12.50794009 -3.09375 9.6953125 C-3.10212891 8.89287109 -3.11050781 8.09042969 -3.11914062 7.26367188 C-3.1277643 5.21986029 -3.0835315 3.17597348 -3.03125 1.1328125 C-2.03125 0.1328125 -2.03125 0.1328125 0 0 Z " fill="#B4B4B4" transform="translate(292.03125,88.8671875)"/>
<path d="M0 0 C0.66 0.33 1.32 0.66 2 1 C1.67 1.99 1.34 2.98 1 4 C-0.65 4 -2.3 4 -4 4 C-2.93824 7.37832726 -2.07897882 8.93042342 0.625 11.3125 C3.09770303 14.11055869 3.3846378 14.619271 3.5 18.125 C3 22 3 22 2 24 C-1.27967758 25.63983879 -4.37138689 25.17845638 -8 25 C-8.33 23.68 -8.66 22.36 -9 21 C-6.69 21 -4.38 21 -2 21 C-2.11784837 16.28606503 -3.50370759 14.24621971 -6.6875 11 C-8.6015625 8.96484375 -8.6015625 8.96484375 -10 7 C-9.5625 3.5625 -9.5625 3.5625 -8 1 C-5.26094655 -0.36952673 -3.02912668 -0.12621361 0 0 Z " fill="#A7A7A7" transform="translate(220,83)"/>
<path d="M0 0 C3.01665471 -0.38510486 5.0626549 -0.60664624 7.671875 1.08203125 C9.70007127 4.01098528 9.35971264 6.55060586 9.3125 10.0625 C9.30863281 11.31160156 9.30476562 12.56070313 9.30078125 13.84765625 C9 17 9 17 7 19 C3.5 19.3125 3.5 19.3125 0 19 C-2.38081145 15.42878282 -2.26906871 13.73325367 -2.25 9.5 C-2.25773438 7.78296875 -2.25773438 7.78296875 -2.265625 6.03125 C-2 3 -2 3 0 0 Z M3 4 C1.97296252 9.55493924 1.97296252 9.55493924 3 15 C3.66 15 4.32 15 5 15 C5 11.7 5 8.4 5 5 C4.34 4.67 3.68 4.34 3 4 Z " fill="#B5B5B5" transform="translate(227,89)"/>
<path d="M0 0 C3.0625 0.125 3.0625 0.125 5.0625 1.125 C6.09085363 4.21006088 6.19618434 6.3944272 6.1875 9.625 C6.19007812 10.5840625 6.19265625 11.543125 6.1953125 12.53125 C6.0625 15.125 6.0625 15.125 5.0625 18.125 C2.29999964 19.50625018 0.11518901 19.31579306 -2.9375 19.125 C-6.04586546 16.01663454 -5.8956605 12.39960226 -5.9375 8.125 C-4.61853141 0.19653325 -4.61853141 0.19653325 0 0 Z M-0.9375 4.125 C-0.9375 7.755 -0.9375 11.385 -0.9375 15.125 C-0.2775 15.125 0.3825 15.125 1.0625 15.125 C2.08953748 9.57006076 2.08953748 9.57006076 1.0625 4.125 C0.4025 4.125 -0.2575 4.125 -0.9375 4.125 Z " fill="#AEAEAE" transform="translate(99.9375,88.875)"/>
<path d="M0 0 C1.670625 0.061875 1.670625 0.061875 3.375 0.125 C5.3423374 3.41426371 5.61947228 5.88071581 5.5625 9.6875 C5.55283203 11.11255859 5.55283203 11.11255859 5.54296875 12.56640625 C5.375 15.125 5.375 15.125 4.375 18.125 C2.125 19.5 2.125 19.5 -0.625 20.125 C-3.26953125 19.13671875 -3.26953125 19.13671875 -5.625 17.125 C-6.06433956 14.36914278 -6.19425938 12.29327777 -6.0625 9.5625 C-6.05379883 8.53479492 -6.05379883 8.53479492 -6.04492188 7.48632812 C-5.91566991 2.21801806 -5.70720778 0.19680027 0 0 Z M-1.625 4.125 C-1.625 7.755 -1.625 11.385 -1.625 15.125 C-0.965 15.125 -0.305 15.125 0.375 15.125 C1.63526798 12.60446405 1.29374445 11.2707902 0.9375 8.5 C0.83566406 7.68273437 0.73382813 6.86546875 0.62890625 6.0234375 C0.54511719 5.39695312 0.46132813 4.77046875 0.375 4.125 C-0.285 4.125 -0.945 4.125 -1.625 4.125 Z " fill="#D4D4D4" transform="translate(281.625,88.875)"/>
<path d="M0 0 C7.71484375 -0.09765625 7.71484375 -0.09765625 10 0 C11 1 11 1 11.11352539 2.76586914 C11.10828857 3.51473389 11.10305176 4.26359863 11.09765625 5.03515625 C11.09443359 5.84404297 11.09121094 6.65292969 11.08789062 7.48632812 C11.07951172 8.33646484 11.07113281 9.18660156 11.0625 10.0625 C11.05798828 10.91650391 11.05347656 11.77050781 11.04882812 12.65039062 C11.03700373 14.76695663 11.01906769 16.88348685 11 19 C9.68 19 8.36 19 7 19 C7 14.05 7 9.1 7 4 C6.01 4.495 6.01 4.495 5 5 C4.52998967 8.27555608 4.52998967 8.27555608 4.375 12.0625 C4.30023438 13.35285156 4.22546875 14.64320312 4.1484375 15.97265625 C4.09945312 16.97167969 4.05046875 17.97070312 4 19 C2.68 18.67 1.36 18.34 0 18 C0 12.06 0 6.12 0 0 Z " fill="#CECECE" transform="translate(108,89)"/>
<path d="M0 0 C3.3 0 6.6 0 10 0 C11.65497356 3.30994713 11.10084335 6.99123 11.0625 10.625 C11.05798828 11.42679688 11.05347656 12.22859375 11.04882812 13.0546875 C11.03703168 15.03649006 11.01909605 17.01825433 11 19 C9.68 19 8.36 19 7 19 C7 14.05 7 9.1 7 4 C6.01 4 5.02 4 4 4 C4 8.95 4 13.9 4 19 C2.68 19 1.36 19 0 19 C0 12.73 0 6.46 0 0 Z " fill="#A8A8A8" transform="translate(122,89)"/>
<path d="M0 0 C1.4540625 0.2165625 1.4540625 0.2165625 2.9375 0.4375 C5.21812828 3.85844242 5.15675007 5.11937222 5.0625 9.125 C5.04445312 10.11886719 5.02640625 11.11273438 5.0078125 12.13671875 C4.97300781 13.27560547 4.97300781 13.27560547 4.9375 14.4375 C3.9475 14.4375 2.9575 14.4375 1.9375 14.4375 C1.9375 13.7775 1.9375 13.1175 1.9375 12.4375 C0.9475 12.1075 -0.0425 11.7775 -1.0625 11.4375 C-1.0625 12.7575 -1.0625 14.0775 -1.0625 15.4375 C0.9175 15.4375 2.8975 15.4375 4.9375 15.4375 C4.6075 16.7575 4.2775 18.0775 3.9375 19.4375 C0.5625 19.5625 0.5625 19.5625 -3.0625 19.4375 C-5.77782919 16.72217081 -5.55586435 14.84957633 -5.875 11.0625 C-5.98457031 9.92039062 -6.09414062 8.77828125 -6.20703125 7.6015625 C-5.99045018 2.86019307 -4.7904891 0.68435559 0 0 Z M-1.0625 4.4375 C-1.0625 5.4275 -1.0625 6.4175 -1.0625 7.4375 C-0.4025 7.1075 0.2575 6.7775 0.9375 6.4375 C0.2775 5.7775 -0.3825 5.1175 -1.0625 4.4375 Z " fill="#9A9A9A" transform="translate(141.0625,88.5625)"/>
<path d="M0 0 C0.33 1.32 0.66 2.64 1 4 C-0.65 4 -2.3 4 -4 4 C-4 9.61 -4 15.22 -4 21 C-2.02 21 -0.04 21 2 21 C1.67 22.32 1.34 23.64 1 25 C-2.00864103 25.96706319 -4.05360248 26.27677226 -7 25 C-10.84233058 19.74207395 -10.2441158 12.40201371 -9.50390625 6.24609375 C-9 4 -9 4 -7.25 1.375 C-4.60426893 -0.24183566 -3.04838235 -0.33870915 0 0 Z " fill="#C6C6C6" transform="translate(91,83)"/>
<path d="M0 0 C0 1.65 0 3.3 0 5 C-0.99 5.495 -0.99 5.495 -2 6 C-2 4.02 -2 2.04 -2 0 C-6.95 0 -11.9 0 -17 0 C-16.67 1.65 -16.34 3.3 -16 5 C-14.68 5.33 -13.36 5.66 -12 6 C-12 17.55 -12 29.1 -12 41 C-12.66 41 -13.32 41 -14 41 C-14.103125 40.360625 -14.20625 39.72125 -14.3125 39.0625 C-14.539375 38.381875 -14.76625 37.70125 -15 37 C-15.99 36.67 -16.98 36.34 -18 36 C-17.67 34.68 -17.34 33.36 -17 32 C-16.34 32.99 -15.68 33.98 -15 35 C-14.67 25.76 -14.34 16.52 -14 7 C-15.32 6.67 -16.64 6.34 -18 6 C-18 3.69 -18 1.38 -18 -1 C-11.91212295 -3.02929235 -5.90732295 -2.42351711 0 0 Z " fill="#C1C1C1" transform="translate(216,18)"/>
<path d="M0 0 C1.134375 0.020625 2.26875 0.04125 3.4375 0.0625 C3.4375 1.3825 3.4375 2.7025 3.4375 4.0625 C2.1175 4.0625 0.7975 4.0625 -0.5625 4.0625 C-0.129375 4.50980469 0.30375 4.95710938 0.75 5.41796875 C5.2407347 10.29332656 5.2407347 10.29332656 6.125 13.75 C5.10559537 17.17890648 3.49088405 18.29832255 0.4375 20.0625 C-2.375 19.8125 -2.375 19.8125 -4.5625 19.0625 C-4.5625 17.7425 -4.5625 16.4225 -4.5625 15.0625 C-2.9125 15.0625 -1.2625 15.0625 0.4375 15.0625 C0.4375 13.7425 0.4375 12.4225 0.4375 11.0625 C-0.201875 10.753125 -0.84125 10.44375 -1.5 10.125 C-3.5625 9.0625 -3.5625 9.0625 -4.5625 8.0625 C-4.6875 4.5625 -4.6875 4.5625 -4.5625 1.0625 C-3.5625 0.0625 -3.5625 0.0625 0 0 Z " fill="#C9C9C9" transform="translate(307.5625,88.9375)"/>
<path d="M0 0 C1.32 0 2.64 0 4 0 C4 0.66 4 1.32 4 2 C4.99 2 5.98 2 7 2 C7 3.32 7 4.64 7 6 C6.01 6.495 6.01 6.495 5 7 C5 10.3 5 13.6 5 17 C5.99 17 6.98 17 8 17 C8 18.32 8 19.64 8 21 C5.125 21.125 5.125 21.125 2 21 C-0.99924559 18.00075441 -0.5053797 14.53313682 -0.6875 10.5 C-0.73455078 9.71496094 -0.78160156 8.92992188 -0.83007812 8.12109375 C-1.13606973 2.27213946 -1.13606973 2.27213946 0 0 Z " fill="#A8A8A8" transform="translate(259,87)"/>
<path d="M0 0 C4.75 0.875 4.75 0.875 7 2 C7 3.32 7 4.64 7 6 C6.34 6 5.68 6 5 6 C5 9.63 5 13.26 5 17 C5.99 17 6.98 17 8 17 C7.67 18.65 7.34 20.3 7 22 C4.0625 21.25 4.0625 21.25 1 20 C-0.15494938 17.03388001 -0.10575968 14.15315013 -0.0625 11 C-0.05347656 10.154375 -0.04445312 9.30875 -0.03515625 8.4375 C-0.02355469 7.633125 -0.01195312 6.82875 0 6 C0 4.68 0 3.36 0 2 C0 1.34 0 0.68 0 0 Z " fill="#B0B0B0" transform="translate(159,87)"/>
<path d="M0 0 C3.625 -0.1875 3.625 -0.1875 7 0 C7 1.32 7 2.64 7 4 C5.35 4 3.7 4 2 4 C2.33 7.63 2.66 11.26 3 15 C4.32 15 5.64 15 7 15 C7 16.32 7 17.64 7 19 C1.375 19.25 1.375 19.25 -2 17 C-2.36328125 13.84765625 -2.36328125 13.84765625 -2.3125 10.0625 C-2.30863281 8.81597656 -2.30476562 7.56945312 -2.30078125 6.28515625 C-2 3 -2 3 0 0 Z " fill="#BEBEBE" transform="translate(150,89)"/>
<path d="M0 0 C0.99 0.33 1.98 0.66 3 1 C3 8.92 3 16.84 3 25 C1.68 25 0.36 25 -1 25 C-1.84246352 19.85760267 -2.18267357 14.89522266 -2.1875 9.6875 C-2.19974609 8.97271484 -2.21199219 8.25792969 -2.22460938 7.52148438 C-2.2298177 5.67947476 -2.12280544 3.83791877 -2 2 C-1.34 1.34 -0.68 0.68 0 0 Z " fill="#949494" transform="translate(270,83)"/>
<path d="M0 0 C1.98 0.495 1.98 0.495 4 1 C4 8.92 4 16.84 4 25 C2.68 25 1.36 25 0 25 C-0.19628414 21.20873402 -0.38053896 17.41697828 -0.5625 13.625 C-0.61857422 12.54476562 -0.67464844 11.46453125 -0.73242188 10.3515625 C-0.78076172 9.3203125 -0.82910156 8.2890625 -0.87890625 7.2265625 C-0.9260376 6.27346191 -0.97316895 5.32036133 -1.02172852 4.33837891 C-1 2 -1 2 0 0 Z " fill="#A2A2A2" transform="translate(239,83)"/>
<path d="M0 0 C1.32 0 2.64 0 4 0 C4 7.92 4 15.84 4 24 C2.68 24 1.36 24 0 24 C-0.1958691 20.18788097 -0.38029565 16.37529466 -0.5625 12.5625 C-0.61857422 11.47388672 -0.67464844 10.38527344 -0.73242188 9.26367188 C-0.78076172 8.22919922 -0.82910156 7.19472656 -0.87890625 6.12890625 C-0.9260376 5.17056885 -0.97316895 4.21223145 -1.02172852 3.22485352 C-1 1 -1 1 0 0 Z " fill="#ADADAD" transform="translate(169,84)"/>
<path d="M0 0 C1.32 0.33 2.64 0.66 4 1 C3.01 1 2.02 1 1 1 C1.00222061 1.58659897 1.00444122 2.17319794 1.00672913 2.77757263 C1.0287821 8.86025384 1.04390664 14.94292377 1.05493164 21.02563477 C1.05997325 23.29842591 1.06680637 25.5712138 1.07543945 27.84399414 C1.08751261 31.10303551 1.09322987 34.36203417 1.09765625 37.62109375 C1.10281754 38.64400009 1.10797882 39.66690643 1.11329651 40.72080994 C1.11337204 41.66170975 1.11344757 42.60260956 1.11352539 43.57202148 C1.115746 44.40475082 1.11796661 45.23748016 1.12025452 46.09544373 C1 48 1 48 0 49 C-6.38873239 49.47323944 -6.38873239 49.47323944 -8.9375 47.5 C-9.288125 47.005 -9.63875 46.51 -10 46 C-9.67 45.34 -9.34 44.68 -9 44 C-8.01 44.66 -7.02 45.32 -6 46 C-4.02 46.33 -2.04 46.66 0 47 C0 31.49 0 15.98 0 0 Z " fill="#C6C6C6" transform="translate(210,24)"/>
<path d="M0 0 C0 5.28 0 10.56 0 16 C-0.66 16 -1.32 16 -2 16 C-2 11.05 -2 6.1 -2 1 C-3.32 1 -4.64 1 -6 1 C-6 5.95 -6 10.9 -6 16 C-6.66 16 -7.32 16 -8 16 C-8 10.72 -8 5.44 -8 0 C-5 -1 -5 -1 0 0 Z " fill="#7C7C7C" transform="translate(186,91)"/>
<path d="M0 0 C2.64 0 5.28 0 8 0 C9.50156874 3.00313748 9.09281204 5.79067522 9.0625 9.125 C9.05347656 10.40632813 9.04445313 11.68765625 9.03515625 13.0078125 C9.02355469 13.99523437 9.01195313 14.98265625 9 16 C8.01 16 7.02 16 6 16 C6 11.05 6 6.1 6 1 C4.68 1.33 3.36 1.66 2 2 C1.67 6.62 1.34 11.24 1 16 C0.67 16 0.34 16 0 16 C0 10.72 0 5.44 0 0 Z " fill="#7B7B7B" transform="translate(110,91)"/>
<path d="M0 0 C2.37254954 2.37254954 3.98483473 4.28496054 5.75 7.0625 C6.19859375 7.75472656 6.6471875 8.44695313 7.109375 9.16015625 C7.40328125 9.76730469 7.6971875 10.37445313 8 11 C7.67 11.66 7.34 12.32 7 13 C5.35 10.69 3.7 8.38 2 6 C1.67 15.57 1.34 25.14 1 35 C2.65 35.33 4.3 35.66 6 36 C6 37.98 6 39.96 6 42 C5.67 42 5.34 42 5 42 C4.67 40.35 4.34 38.7 4 37 C2.68 36.67 1.36 36.34 0 36 C0 24.12 0 12.24 0 0 Z " fill="#C2C2C2" transform="translate(176,30)"/>
<path d="M0 0 C4.55555556 0.55555556 4.55555556 0.55555556 6 2 C6.07244053 4.01964199 6.08377188 6.04167124 6.0625 8.0625 C6.05347656 9.16722656 6.04445313 10.27195312 6.03515625 11.41015625 C6.02355469 12.26480469 6.01195312 13.11945313 6 14 C5.67 14 5.34 14 5 14 C4.67 10.37 4.34 6.74 4 3 C3.01 3 2.02 3 1 3 C0.91917906 4.95766281 0.86089222 6.91626728 0.8125 8.875 C0.77769531 9.96554688 0.74289062 11.05609375 0.70703125 12.1796875 C0.80371094 13.11039063 0.90039062 14.04109375 1 15 C1.99 15.66 2.98 16.32 4 17 C2.02 17 0.04 17 -2 17 C-2.05383848 14.54137599 -2.09359038 12.0839245 -2.125 9.625 C-2.14175781 8.92632812 -2.15851563 8.22765625 -2.17578125 7.5078125 C-2.19344267 5.67102514 -2.10303261 3.83398037 -2 2 C-1.34 1.34 -0.68 0.68 0 0 Z " fill="#707070" transform="translate(279,90)"/>
<path d="M0 0 C0.66 0.33 1.32 0.66 2 1 C1.67 1.99 1.34 2.98 1 4 C-0.65 4 -2.3 4 -4 4 C-2.7508258 7.45925163 -1.32472205 10.14693203 1 13 C-1.86095641 11.7175023 -4.11365918 10.54656011 -6 8 C-6.1875 5.3125 -6.1875 5.3125 -6 3 C-6.66 3 -7.32 3 -8 3 C-8 4.65 -8 6.3 -8 8 C-8.66 7.34 -9.32 6.68 -10 6 C-7.85674632 0.02950759 -6.26642586 -0.26110108 0 0 Z " fill="#D5D5D5" transform="translate(220,83)"/>
<path d="M0 0 C0.66 0 1.32 0 2 0 C2 4.62 2 9.24 2 14 C3.32 13.67 4.64 13.34 6 13 C6.33 8.71 6.66 4.42 7 0 C7.33 0 7.66 0 8 0 C8 5.28 8 10.56 8 16 C5.69 16 3.38 16 1 16 C-0.50156874 12.99686252 -0.09281204 10.20932478 -0.0625 6.875 C-0.05347656 5.59367187 -0.04445312 4.31234375 -0.03515625 2.9921875 C-0.02355469 2.00476563 -0.01195312 1.01734375 0 0 Z " fill="#6F6F6F" transform="translate(247,91)"/>
<path d="M0 0 C0.99 0.33 1.98 0.66 3 1 C3 8.92 3 16.84 3 25 C1.68 24.67 0.36 24.34 -1 24 C-0.01 24 0.98 24 2 24 C2 18.39 2 12.78 2 7 C1.01 7 0.02 7 -1 7 C-1.625 4.625 -1.625 4.625 -2 2 C-1.34 1.34 -0.68 0.68 0 0 Z " fill="#EDEDED" transform="translate(270,83)"/>
<path d="M0 0 C2.0625 0.4375 2.0625 0.4375 4 1 C4.24887295 3.10192697 4.4734719 5.20673964 4.6875 7.3125 C4.81511719 8.48425781 4.94273437 9.65601562 5.07421875 10.86328125 C5 14 5 14 3.51953125 15.91796875 C2.76736328 16.45357422 2.76736328 16.45357422 2 17 C1.01 16.34 0.02 15.68 -1 15 C-1 14.34 -1 13.68 -1 13 C-1.01160156 12.08089844 -1.02320313 11.16179687 -1.03515625 10.21484375 C-1.04417969 9.13332031 -1.05320312 8.05179688 -1.0625 6.9375 C-1.07410156 5.85339844 -1.08570313 4.76929687 -1.09765625 3.65234375 C-1 1 -1 1 0 0 Z M0 1 C0 4.63 0 8.26 0 12 C0.66 12 1.32 12 2 12 C3.26026798 9.47946405 2.91874445 8.1457902 2.5625 5.375 C2.46066406 4.55773437 2.35882813 3.74046875 2.25390625 2.8984375 C2.17011719 2.27195312 2.08632813 1.64546875 2 1 C1.34 1 0.68 1 0 1 Z " fill="#BCBCBC" transform="translate(280,92)"/>
<path d="M0 0 C0.33 0 0.66 0 1 0 C1 3.63 1 7.26 1 11 C0.01 11 -0.98 11 -2 11 C-2 10.34 -2 9.68 -2 9 C-2.99 8.67 -3.98 8.34 -5 8 C-5 9.32 -5 10.64 -5 12 C-3.02 12 -1.04 12 1 12 C0.67 13.32 0.34 14.64 0 16 C-2.31 16 -4.62 16 -7 16 C-6.34 15.34 -5.68 14.68 -5 14 C-5.33 13.67 -5.66 13.34 -6 13 C-6.04080783 11.00041636 -6.04254356 8.99954746 -6 7 C-4.02 7 -2.04 7 0 7 C0 4.69 0 2.38 0 0 Z " fill="#DBDBDB" transform="translate(145,92)"/>
<path d="M0 0 C0.33 0 0.66 0 1 0 C1.33 5.61 1.66 11.22 2 17 C3.65 17 5.3 17 7 17 C7 17.66 7 18.32 7 19 C1.25 19.125 1.25 19.125 -1 18 C-1.02698422 15.56242587 -1.04683099 13.12515085 -1.0625 10.6875 C-1.07087891 9.99720703 -1.07925781 9.30691406 -1.08789062 8.59570312 C-1.10307906 5.4516975 -1.00193327 3.00579981 0 0 Z " fill="#6F6F6F" transform="translate(84,88)"/>
<path d="M0 0 C0.99 0 1.98 0 3 0 C3 1.32 3 2.64 3 4 C2.01 4.495 2.01 4.495 1 5 C1 8.3 1 11.6 1 15 C1.99 15 2.98 15 4 15 C4 16.32 4 17.64 4 19 C2.02 19 0.04 19 -2 19 C-1.34 18.34 -0.68 17.68 0 17 C-0.33 16.67 -0.66 16.34 -1 16 C-1.07258946 13.81360547 -1.08373783 11.62499611 -1.0625 9.4375 C-1.05347656 8.23996094 -1.04445313 7.04242188 -1.03515625 5.80859375 C-1.02355469 4.88175781 -1.01195312 3.95492187 -1 3 C-0.01 3 0.98 3 2 3 C2 2.34 2 1.68 2 1 C1.34 0.67 0.68 0.34 0 0 Z " fill="#D3D3D3" transform="translate(263,89)"/>
<path d="M0 0 C0.33 0 0.66 0 1 0 C1 10.89 1 21.78 1 33 C0.34 32.67 -0.32 32.34 -1 32 C-1 31.34 -1 30.68 -1 30 C-1.99 29.67 -2.98 29.34 -4 29 C-3.67 27.68 -3.34 26.36 -3 25 C-2.34 25.99 -1.68 26.98 -1 28 C-0.67 18.76 -0.34 9.52 0 0 Z " fill="#EBEBEB" transform="translate(202,25)"/>
<path d="M0 0 C5.61 0 11.22 0 17 0 C17 7.875 17 7.875 16 11 C15.34 9.68 14.68 8.36 14 7 C13.34 7 12.68 7 12 7 C12 6.34 12 5.68 12 5 C13.32 5 14.64 5 16 5 C16 3.68 16 2.36 16 1 C11.05 1 6.1 1 1 1 C0.67 2.32 0.34 3.64 0 5 C0 3.35 0 1.7 0 0 Z " fill="#888888" transform="translate(308,18)"/>
<path d="M0 0 C1.2065625 0.0309375 1.2065625 0.0309375 2.4375 0.0625 C2.4375 0.7225 2.4375 1.3825 2.4375 2.0625 C1.1175 2.0625 -0.2025 2.0625 -1.5625 2.0625 C-0.31273244 5.71566671 0.10848753 6.84315836 3.4375 9.0625 C3.625 11.6875 3.625 11.6875 3.4375 14.0625 C2.839375 13.299375 2.24125 12.53625 1.625 11.75 C-0.36650177 9.14042652 -0.36650177 9.14042652 -2.3125 7.5625 C-3.5625 6.0625 -3.5625 6.0625 -3.8125 3.4375 C-3.4650795 0.13700523 -3.34579251 0.0816047 0 0 Z " fill="#737373" transform="translate(307.5625,89.9375)"/>
<path d="M0 0 C5.75 -0.125 5.75 -0.125 8 1 C8.04254356 2.99954746 8.04080783 5.00041636 8 7 C7 8 7 8 3.9375 8.0625 C2.968125 8.041875 1.99875 8.02125 1 8 C1.639375 7.7525 2.27875 7.505 2.9375 7.25 C5.18741541 6.18437567 5.18741541 6.18437567 5.75 3.875 C5.8325 3.25625 5.915 2.6375 6 2 C4.02 2 2.04 2 0 2 C0 1.34 0 0.68 0 0 Z " fill="#737373" transform="translate(192,105)"/>
<path d="M0 0 C2.96865509 2.54456151 4.3619751 5.48994665 6 9 C6.99 8.34 7.98 7.68 9 7 C8.34 8.98 7.68 10.96 7 13 C4.04415849 10.24800963 1.81234853 7.62469707 0 4 C0 2.68 0 1.36 0 0 Z " fill="#D6D6D6" transform="translate(120,35)"/>
<path d="M0 0 C2.60018816 3.90028225 2.15085514 7.47434569 2 12 C1.34 11.67 0.68 11.34 0 11 C0.33 9.02 0.66 7.04 1 5 C-1.31 4.67 -3.62 4.34 -6 4 C-6 3.34 -6 2.68 -6 2 C-4.02 1.34 -2.04 0.68 0 0 Z " fill="#E2E2E2" transform="translate(199,101)"/>
<path d="M0 0 C1.65 0 3.3 0 5 0 C7.10428384 5.12919186 7.21755666 9.5610835 7 15 C6.67 15 6.34 15 6 15 C5.85304687 13.75283203 5.85304687 13.75283203 5.703125 12.48046875 C5.47882813 10.85044922 5.47882813 10.85044922 5.25 9.1875 C5.11078125 8.10855469 4.9715625 7.02960938 4.828125 5.91796875 C3.87964785 2.57592898 2.95126765 1.70957577 0 0 Z " fill="#7B7B7B" transform="translate(228,90)"/>
<path d="M0 0 C0.66 0 1.32 0 2 0 C2.433125 1.36125 2.433125 1.36125 2.875 2.75 C3.76531776 5.32202908 4.71494413 7.61346766 6 10 C4.02 9.01 2.04 8.02 0 7 C0 4.69 0 2.38 0 0 Z " fill="#797979" transform="translate(212,86)"/>
<path d="M0 0 C2.31 0 4.62 0 7 0 C7 3.63 7 7.26 7 11 C6.67 11 6.34 11 6 11 C6 8.36 6 5.72 6 3 C4.02 2.34 2.04 1.68 0 1 C0 0.67 0 0.34 0 0 Z " fill="#888888" transform="translate(193,90)"/>
<path d="M0 0 C2.31 0 4.62 0 7 0 C7.33 0.66 7.66 1.32 8 2 C2.25 3.125 2.25 3.125 0 2 C0 3.65 0 5.3 0 7 C-0.66 6.34 -1.32 5.68 -2 5 C-1.34 3.35 -0.68 1.7 0 0 Z " fill="#ACACAC" transform="translate(212,84)"/>
<path d="M0 0 C2.03819846 2.03819846 2.67841059 3.29417798 3.6875 5.9375 C3.95949219 6.62714844 4.23148437 7.31679688 4.51171875 8.02734375 C5 10 5 10 4 13 C0.25474201 9.25474201 0.31090051 5.01729091 0 0 Z " fill="#CACACA" transform="translate(288,45)"/>
<path d="M0 0 C0.33 0 0.66 0 1 0 C1.25 7.625 1.25 7.625 -1 11 C-1.66 11 -2.32 11 -3 11 C-2.01 7.37 -1.02 3.74 0 0 Z " fill="#C0C0C0" transform="translate(78,49)"/>
<path d="M0 0 C1.98 0.66 3.96 1.32 6 2 C6 2.66 6 3.32 6 4 C4.02 4 2.04 4 0 4 C0 2.68 0 1.36 0 0 Z " fill="#959595" transform="translate(97,104)"/>
<path d="M0 0 C1.32 0 2.64 0 4 0 C4 0.66 4 1.32 4 2 C3.01 2.33 2.02 2.66 1 3 C0.67 5.31 0.34 7.62 0 10 C-0.33 10 -0.66 10 -1 10 C-1.02689216 8.52093108 -1.04634621 7.04172517 -1.0625 5.5625 C-1.07410156 4.73878906 -1.08570313 3.91507812 -1.09765625 3.06640625 C-1 1 -1 1 0 0 Z " fill="#717171" transform="translate(151,90)"/>
<path d="M0 0 C0.99 0.33 1.98 0.66 3 1 C3 2.32 3 3.64 3 5 C1.68 4.67 0.36 4.34 -1 4 C-0.67 2.68 -0.34 1.36 0 0 Z " fill="#BBBBBB" transform="translate(270,83)"/>
<path d="M0 0 C0.66 0 1.32 0 2 0 C1.39009109 3.55780196 0.4216319 6.6828589 -1 10 C-2.46726798 6.18510326 -1.43336419 3.70988378 0 0 Z " fill="#D1D1D1" transform="translate(272,28)"/>
<path d="M0 0 C2.64 0 5.28 0 8 0 C6.25 1.125 6.25 1.125 4 2 C1.75 1.125 1.75 1.125 0 0 Z " fill="#FBFBFB" transform="translate(193,0)"/>
<path d="M0 0 C3 1 3 1 3 1 Z " fill="#FEFEFE" transform="translate(299,0)"/>
<path d="" fill="#FCFCFC" transform="translate(0,0)"/>
<path d="" fill="#FFFFFF" transform="translate(0,0)"/>
</svg>
