<?xml version="1.0" encoding="UTF-8"?>
<svg version="1.1" xmlns="http://www.w3.org/2000/svg" width="396" height="254">
<path d="M0 0 C1.78125 1.609375 1.78125 1.609375 3.5 3.75 C4.39912109 4.84054688 4.39912109 4.84054688 5.31640625 5.953125 C5.87199219 6.62859375 6.42757813 7.3040625 7 8 C8.31635024 9.35010281 9.63973902 10.69414946 11 12 C11.4125 11.2575 11.825 10.515 12.25 9.75 C13.95104414 7.07693063 15.61593737 5.07644165 18 3 C18.66 3 19.32 3 20 3 C20.33 2.01 20.66 1.02 21 0 C24.2844404 0.57945005 25.87493896 1.51860416 28.171875 3.9140625 C28.74953613 4.50654785 29.32719727 5.0990332 29.92236328 5.70947266 C30.5254834 6.34159668 31.12860352 6.9737207 31.75 7.625 C33.01113234 8.91851058 34.27413553 10.21019995 35.5390625 11.5 C36.14137695 12.11488281 36.74369141 12.72976562 37.36425781 13.36328125 C39.211246 15.21137211 41.12838189 16.9400902 43.125 18.625 C46.71676181 21.6980391 50.16035763 24.90724889 53.5625 28.1875 C54.11244629 28.69941895 54.66239258 29.21133789 55.22900391 29.73876953 C56.75390625 31.23046875 56.75390625 31.23046875 59 34 C58.55306239 38.79826577 54.89721714 41.17630111 51.5 44.1875 C45.40255318 49.72397873 39.49295804 55.40782219 33.6875 61.25 C32.58535156 62.35831177 32.58535156 62.35831177 31.4609375 63.48901367 C30.15612872 64.80319078 28.85220621 66.11824903 27.54956055 67.43457031 C26.36978237 68.62643067 25.18583466 69.81416534 24 71 C18.98715141 69.63285948 14.90226521 66.2722786 12 62 C11.9609375 60.09765625 11.9609375 60.09765625 13 58 C14.791942 56.15278706 16.55895907 54.48618889 18.5 52.8125 C19.59008344 51.84548521 20.67860702 50.87670939 21.765625 49.90625 C22.30896484 49.42285156 22.85230469 48.93945312 23.41210938 48.44140625 C27.08355688 45.10865316 30.53449429 41.5442672 34 38 C29.1542611 40.50552902 25.81900165 44.00449376 22.08984375 47.890625 C20.75758615 49.25301959 19.42489086 50.6149863 18.09179688 51.9765625 C16.00404634 54.12029879 13.92045038 56.26769994 11.84448242 58.42285156 C9.83309524 60.50648855 7.80658616 62.57439444 5.77734375 64.640625 C5.15746078 65.2925885 4.53757782 65.944552 3.89891052 66.61627197 C3.02263756 67.50279449 3.02263756 67.50279449 2.12866211 68.40722656 C1.6196788 68.93334534 1.1106955 69.45946411 0.58628845 70.00152588 C-1 71 -1 71 -3.05491638 70.78314209 C-5.70489284 69.71619151 -7.16679967 68.16055754 -9 66 C-9 65.34 -9 64.68 -9 64 C-10.32 63.34 -11.64 62.68 -13 62 C-12.50743514 57.72819857 -10.06985793 55.72580322 -7.08984375 52.796875 C-6.60294571 52.3142218 -6.11604767 51.8315686 -5.61439514 51.33428955 C-4.0623455 49.7989915 -2.50017864 48.27447075 -0.9375 46.75 C0.11852357 45.7090278 1.17387038 44.6673686 2.22851562 43.625 C4.81121415 41.07532367 7.40308882 38.53520804 10 36 C6.89473596 29.47894552 1.19949 24.99417252 -4.1875 20.3125 C-4.83976562 19.7453125 -5.49203125 19.178125 -6.1640625 18.59375 C-7.32144895 17.58904006 -8.48243318 16.58844563 -9.6484375 15.59375 C-11.0625 14.3125 -11.0625 14.3125 -13 12 C-12.71933238 8.2499687 -10.76825429 6.33554233 -8.1875 3.75 C-7.15689453 2.69039062 -7.15689453 2.69039062 -6.10546875 1.609375 C-4 0 -4 0 0 0 Z M15 15 C16 17 16 17 16 17 Z M17 18 C17.66 18.66 18.32 19.32 19 20 C19.33 19.34 19.66 18.68 20 18 C19.01 18 18.02 18 17 18 Z M20 21 C20.66 21.66 21.32 22.32 22 23 C22 22.34 22 21.68 22 21 C21.34 21 20.68 21 20 21 Z M35 34 C35 34.66 35 35.32 35 36 C35.66 35.67 36.32 35.34 37 35 C36.34 34.67 35.68 34.34 35 34 Z " fill="#212121" transform="translate(302,34)"/>
<path d="M0 0 C4.64073925 0.28125692 7.14028602 2.45124187 10.546875 5.33203125 C12.30239418 7.347103 12.82697442 8.3242085 13 11 C11.27758789 13.29003906 11.27758789 13.29003906 8.72265625 15.765625 C7.81708984 16.65507813 6.91152344 17.54453125 5.97851562 18.4609375 C5.00677357 19.39090005 4.03476484 20.32058402 3.0625 21.25 C2.09327057 22.19415339 1.12515643 23.13945315 0.15820312 24.0859375 C-2.21710839 26.40216166 -4.60327729 28.7059714 -7 31 C-6.01 30.67 -5.02 30.34 -4 30 C-3.67 29.34 -3.34 28.68 -3 28 C-2.34 28 -1.68 28 -1 28 C-1 27.34 -1 26.68 -1 26 C0.43579102 24.58325195 0.43579102 24.58325195 2.44140625 22.92578125 C7.17382667 18.90056406 11.55776428 14.59014628 15.9375 10.1875 C16.70384766 9.42501953 17.47019531 8.66253906 18.25976562 7.87695312 C18.98744141 7.14798828 19.71511719 6.41902344 20.46484375 5.66796875 C21.120896 5.01078857 21.77694824 4.3536084 22.45288086 3.67651367 C24.08270479 2.06619412 24.08270479 2.06619412 25 0 C29.1724106 0.51881113 31.25416821 1.71151274 34.3125 4.5625 C35.00988281 5.20316406 35.70726563 5.84382813 36.42578125 6.50390625 C36.94527344 6.99761719 37.46476562 7.49132813 38 8 C37.50743514 12.27180143 35.06985793 14.27419678 32.08984375 17.203125 C31.60294571 17.6857782 31.11604767 18.1684314 30.61439514 18.66571045 C29.0623455 20.2010085 27.50017864 21.72552925 25.9375 23.25 C24.88147643 24.2909722 23.82612962 25.3326314 22.77148438 26.375 C20.18878585 28.92467633 17.59691118 31.46479196 15 34 C16.97001108 37.51607149 19.05056763 40.29835796 21.90625 43.13671875 C22.65003906 43.87857422 23.39382812 44.62042969 24.16015625 45.38476562 C24.93230469 46.14466797 25.70445313 46.90457031 26.5 47.6875 C27.27214844 48.45900391 28.04429688 49.23050781 28.83984375 50.02539062 C33.16037002 54.32224231 33.16037002 54.32224231 38 58 C37.42946335 61.77235429 35.83356579 63.62716051 33.1875 66.3125 C32.50042969 67.03050781 31.81335938 67.74851562 31.10546875 68.48828125 C29 70 29 70 26.9140625 69.859375 C22.31703045 67.79540143 19.05261138 64.144511 15.84765625 60.375 C11.83331368 55.74795034 7.57836891 51.39464585 3.25 47.0625 C2.11884766 45.91297852 2.11884766 45.91297852 0.96484375 44.74023438 C0.23910156 44.01255859 -0.48664063 43.28488281 -1.234375 42.53515625 C-1.88631836 41.879104 -2.53826172 41.22305176 -3.20996094 40.54711914 C-5.02465828 38.78005962 -5.02465828 38.78005962 -8 38 C-4.87904935 41.14987306 -1.75257094 44.29420133 1.375 47.4375 C2.26445313 48.33533203 3.15390625 49.23316406 4.0703125 50.15820312 C4.92109375 51.01220703 5.771875 51.86621094 6.6484375 52.74609375 C7.43395996 53.53685303 8.21948242 54.3276123 9.02880859 55.14233398 C10.86744302 57.05371018 10.86744302 57.05371018 13 58 C12.42946335 61.77235429 10.83356579 63.62716051 8.1875 66.3125 C7.50042969 67.03050781 6.81335938 67.74851562 6.10546875 68.48828125 C4 70 4 70 2.0390625 70.0234375 C-0.81605404 68.59040966 -2.61649477 66.62608661 -4.8125 64.3125 C-8.23639133 60.77783572 -11.68974708 57.46316773 -15.4609375 54.30859375 C-17.79752869 52.3218982 -19.92626601 50.26225526 -22 48 C-22 47.34 -22 46.68 -22 46 C-22.53625 45.773125 -23.0725 45.54625 -23.625 45.3125 C-28.1068348 42.83569656 -32.17574465 39.92548944 -34 35 C-31.83409661 31.29991505 -29.69369833 28.59664661 -26.3984375 25.84375 C-20.88863055 21.1125572 -15.88831129 15.90335319 -10.828125 10.70117188 C-9.74144531 9.59805664 -9.74144531 9.59805664 -8.6328125 8.47265625 C-7.98199707 7.80500244 -7.33118164 7.13734863 -6.66064453 6.44946289 C-5 5 -5 5 -3 5 C-2.67 4.01 -2.34 3.02 -2 2 C-1.34 2 -0.68 2 0 2 C0 1.34 0 0.68 0 0 Z " fill="#0E0E0E" transform="translate(65,34)"/>
<path d="M0 0 C0.7734375 -0.00257812 1.546875 -0.00515625 2.34375 -0.0078125 C4.5 0.125 4.5 0.125 7.5 1.125 C9.078125 3.828125 9.078125 3.828125 10.75 7.375 C11.35881622 8.64412353 11.96954517 9.91233099 12.58203125 11.1796875 C13.05116943 12.15566895 13.05116943 12.15566895 13.52978516 13.15136719 C15.08353617 16.31204237 16.75474664 19.40657596 18.4375 22.5 C19.02402344 23.58023438 19.61054687 24.66046875 20.21484375 25.7734375 C20.63894531 26.54945313 21.06304687 27.32546875 21.5 28.125 C24.65310318 23.61754378 27.16591356 19.008057 29.5625 14.0625 C34.34155466 4.25861073 34.34155466 4.25861073 36.5 1.125 C41.45532954 -0.52677651 46.4288138 0.39249533 51.5 1.125 C52.625 6.875 52.625 6.875 51.5 9.125 C50.18 9.125 48.86 9.125 47.5 9.125 C47.5 22.325 47.5 35.525 47.5 49.125 C48.82 49.125 50.14 49.125 51.5 49.125 C52.125 52 52.125 52 52.5 55.125 C50.00789561 57.61710439 48.49639212 57.38515661 45.08984375 57.3984375 C44.05537109 57.38683594 44.05537109 57.38683594 43 57.375 C42.31035156 57.38273437 41.62070313 57.39046875 40.91015625 57.3984375 C35.75333293 57.37833293 35.75333293 57.37833293 33.5 55.125 C33.875 52 33.875 52 34.5 49.125 C35.82 49.125 37.14 49.125 38.5 49.125 C38.17 39.225 37.84 29.325 37.5 19.125 C36.076875 21.64125 34.65375 24.1575 33.1875 26.75 C32.5236731 27.92103271 32.5236731 27.92103271 31.84643555 29.11572266 C30.08176921 32.24469888 28.37674185 35.37151629 26.76953125 38.5859375 C25.5 41.125 25.5 41.125 24.5 42.125 C21.76171875 42.6953125 21.76171875 42.6953125 18.5 42.125 C16.27232222 39.70268607 14.8404831 36.89863876 13.3125 34 C12.88775391 33.23945313 12.46300781 32.47890625 12.02539062 31.6953125 C9.73164295 27.55729181 7.61735916 23.35971832 5.5 19.125 C5.17 29.025 4.84 38.925 4.5 49.125 C6.15 49.455 7.8 49.785 9.5 50.125 C9.5 52.105 9.5 54.085 9.5 56.125 C3.82309732 58.73330664 -1.49120759 58.13840792 -7.5 57.125 C-8.5 56.125 -8.5 56.125 -8.5625 53.0625 C-8.541875 52.093125 -8.52125 51.12375 -8.5 50.125 C-6.025 49.63 -6.025 49.63 -3.5 49.125 C-3.5721875 48.51398438 -3.644375 47.90296875 -3.71875 47.2734375 C-4.44717057 40.09040131 -4.61069332 32.96653002 -4.625 25.75 C-4.62951172 24.79915527 -4.63402344 23.84831055 -4.63867188 22.86865234 C-4.62873142 18.17427404 -4.47266819 13.7413141 -3.5 9.125 C-6.47 8.63 -6.47 8.63 -9.5 8.125 C-8.6875 4.6875 -8.6875 4.6875 -7.5 1.125 C-4.68772378 0.18757459 -2.91253156 -0.00970844 0 0 Z " fill="#787878" transform="translate(103.5,119.875)"/>
<path d="M0 0 C0.63035156 0.4125 1.26070312 0.825 1.91015625 1.25 C2.93302734 1.86875 2.93302734 1.86875 3.9765625 2.5 C11.85565945 7.76269854 17.1710676 15.58529978 19.4765625 24.75 C21.1870168 34.61207883 19.48232074 43.50445936 14.16015625 52 C7.15332848 61.78539741 -2.08525769 66.45069692 -13.71875 68.8984375 C-23.33773968 69.90157663 -31.4094143 65.60843915 -39.08984375 60.25 C-39.96962891 59.68152344 -39.96962891 59.68152344 -40.8671875 59.1015625 C-47.45354757 54.37547207 -50.33829122 45.85351376 -52.08984375 38.25 C-52.14697412 35.50774216 -52.10782443 32.96546626 -51.90234375 30.25 C-51.87076172 29.57710937 -51.83917969 28.90421875 -51.80664062 28.2109375 C-51.2184674 19.37981491 -47.15461301 12.46830772 -41.08984375 6.25 C-29.77493251 -2.40451121 -13.41389162 -7.4435468 0 0 Z M-37.328125 14.078125 C-41.98001766 19.81305254 -44.35878892 25.81308131 -44.08984375 33.25 C-43.01828297 41.68713123 -40.35908304 48.37709193 -34.08984375 54.25 C-26.66677062 59.39189617 -20.07811817 61.09706251 -11.08984375 60.25 C-2.22282357 57.91924041 4.26656477 53.44450184 8.94140625 45.48828125 C10.6664154 41.50267543 10.80741096 37.54475312 10.91015625 33.25 C10.96042969 32.53457031 11.01070312 31.81914063 11.0625 31.08203125 C11.42377932 23.61077498 8.82229034 19.09290484 4.22265625 13.5625 C-0.72222783 8.33199085 -4.37589096 5.60060367 -11.6484375 4.9140625 C-22.88715693 4.6244622 -29.59688054 5.75450621 -37.328125 14.078125 Z " fill="#B9B9B9" transform="translate(212.08984375,36.75)"/>
<path d="M0 0 C5.5977621 4.36549024 8.85258619 10.83579717 12.5 16.8125 C13.15097656 17.86759766 13.80195313 18.92269531 14.47265625 20.00976562 C15.69651784 21.99390487 16.91758005 23.97977589 18.13476562 25.96801758 C20.40422241 29.65707305 22.70445202 33.32712322 25 37 C25.33 27.76 25.66 18.52 26 9 C24.68 8.67 23.36 8.34 22 8 C22 5.69 22 3.38 22 1 C27.80198443 -0.13517087 33.16351642 -0.00629027 39 1 C40 2 40 2 40.1875 4.4375 C40 7 40 7 38 9 C37.01 9 36.02 9 35 9 C35.00222061 9.58659897 35.00444122 10.17319794 35.00672913 10.77757263 C35.0287821 16.86025384 35.04390664 22.94292377 35.05493164 29.02563477 C35.05997325 31.29842591 35.06680637 33.5712138 35.07543945 35.84399414 C35.08751261 39.10303551 35.09322987 42.36203417 35.09765625 45.62109375 C35.10281754 46.64400009 35.10797882 47.66690643 35.11329651 48.72080994 C35.11337204 49.66170975 35.11344757 50.60260956 35.11352539 51.57202148 C35.115746 52.40475082 35.11796661 53.23748016 35.12025452 54.09544373 C35 56 35 56 34 57 C27.60398924 57.47377857 27.60398924 57.47377857 25.49609375 55.8203125 C23.61203519 53.52795926 22.02690568 51.1309744 20.4375 48.625 C19.83808594 47.68914062 19.23867187 46.75328125 18.62109375 45.7890625 C17.13807941 43.23756312 16.01113571 40.76678927 15 38 C14.34 38 13.68 38 13 38 C12.484375 37.071875 11.96875 36.14375 11.4375 35.1875 C8.43905922 30.03633251 5.19993888 25.02847539 2 20 C1.67 29.57 1.34 39.14 1 49 C2.65 49.33 4.3 49.66 6 50 C6 51.98 6 53.96 6 56 C5.34 56 4.68 56 4 56 C4 56.66 4 57.32 4 58 C1.70858714 58.05384521 -0.58318188 58.09272087 -2.875 58.125 C-4.15117187 58.14820313 -5.42734375 58.17140625 -6.7421875 58.1953125 C-10 58 -10 58 -12 56 C-12.625 53.375 -12.625 53.375 -13 51 C-12.1843457 50.48808105 -11.36869141 49.97616211 -10.52832031 49.44873047 C-7.69670874 47.19103805 -7.69670874 47.19103805 -7.44824219 43.70361328 C-7.48079102 42.42212402 -7.51333984 41.14063477 -7.546875 39.8203125 C-7.55632141 39.12992889 -7.56576782 38.43954529 -7.57550049 37.72824097 C-7.61000895 35.525948 -7.67869241 33.32638083 -7.75 31.125 C-7.80017874 28.93112755 -7.84321996 26.73729074 -7.88165283 24.54318237 C-7.91992728 22.54689963 -7.97656224 20.55099389 -8.03417969 18.55517578 C-8.00235096 15.24453305 -7.64555735 12.24089769 -7 9 C-8.65 8.67 -10.3 8.34 -12 8 C-13 5 -13 5 -12.25 2.875 C-9.73769145 -0.89346282 -4.13698187 -1.01530324 0 0 Z " fill="#6C6C6C" transform="translate(175,120)"/>
<path d="M0 0 C1.1446875 -0.00257812 2.289375 -0.00515625 3.46875 -0.0078125 C6.5 0.125 6.5 0.125 9.5 1.125 C10.375 2.875 10.375 2.875 10.5 5.125 C9.51 6.775 8.52 8.425 7.5 10.125 C10.14 13.755 12.78 17.385 15.5 21.125 C18.16515506 18.45984494 20.17368825 16.37411697 22.25 13.375 C22.9925 12.3025 23.735 11.23 24.5 10.125 C23.984375 9.568125 23.46875 9.01125 22.9375 8.4375 C21.5 6.125 21.5 6.125 21.8125 3.375 C22.039375 2.6325 22.26625 1.89 22.5 1.125 C28.53503763 -0.38375941 34.39738369 0.48313906 40.5 1.125 C41.125 3.4375 41.125 3.4375 41.5 6.125 C39.5 9.125 39.5 9.125 37.57714844 9.56030273 C34.69814495 10.34299374 33.95721502 11.74118253 32.265625 14.16015625 C31.69199219 14.96904297 31.11835938 15.77792969 30.52734375 16.61132812 C29.94082031 17.46146484 29.35429687 18.31160156 28.75 19.1875 C28.14800781 20.04150391 27.54601562 20.89550781 26.92578125 21.77539062 C25.44061255 23.88527314 23.96596854 26.001753 22.5 28.125 C25.18358063 33.00254724 28.06480637 37.51116242 31.4375 41.9375 C31.85451172 42.50919922 32.27152344 43.08089844 32.70117188 43.66992188 C35.29582379 47.08267115 37.34500985 48.95803497 41.5 50.125 C41.5 52.105 41.5 54.085 41.5 56.125 C37.42276266 58.07531692 34.18307578 58.34081971 29.6875 58.25 C28.52605469 58.23195312 27.36460937 58.21390625 26.16796875 58.1953125 C25.28753906 58.17210937 24.40710938 58.14890625 23.5 58.125 C23.5 57.465 23.5 56.805 23.5 56.125 C22.84 56.125 22.18 56.125 21.5 56.125 C21.3125 53.25 21.3125 53.25 21.5 50.125 C22.49 49.465 23.48 48.805 24.5 48.125 C21.53 44.165 18.56 40.205 15.5 36.125 C13.3034375 38.785625 13.3034375 38.785625 11.0625 41.5 C10.23878906 42.49773437 9.41507812 43.49546875 8.56640625 44.5234375 C6.51584166 46.92155295 6.51584166 46.92155295 5.5 49.125 C6.985 49.62 6.985 49.62 8.5 50.125 C8.54254356 52.12454746 8.54080783 54.12541636 8.5 56.125 C7.5 57.125 7.5 57.125 3.68359375 57.22265625 C2.10153318 57.21598089 0.51948841 57.20401875 -1.0625 57.1875 C-1.86880859 57.18298828 -2.67511719 57.17847656 -3.50585938 57.17382812 C-5.50393756 57.16200518 -7.50197783 57.14406914 -9.5 57.125 C-11.5703125 53.390625 -11.5703125 53.390625 -10.9375 51 C-9.5 49.125 -9.5 49.125 -7.23828125 48.41015625 C-3.52665109 46.66817861 -1.60703923 43.91607918 0.75 40.6875 C1.19601562 40.10162109 1.64203125 39.51574219 2.1015625 38.91210938 C4.028976 36.33930439 5.47711007 34.1936698 6.5 31.125 C7.16 30.795 7.82 30.465 8.5 30.125 C7.90732592 27.05489802 7.0110462 25.18569339 5.03125 22.77734375 C4.54269531 22.17212891 4.05414063 21.56691406 3.55078125 20.94335938 C3.03902344 20.32267578 2.52726562 19.70199219 2 19.0625 C0.98576941 17.82472992 -0.02480786 16.58395495 -1.03125 15.33984375 C-1.48048828 14.79448975 -1.92972656 14.24913574 -2.39257812 13.68725586 C-3.5 12.125 -3.5 12.125 -4.5 9.125 C-6.15 8.795 -7.8 8.465 -9.5 8.125 C-10.625 3.375 -10.625 3.375 -9.5 1.125 C-6.13849548 0.00449849 -3.53713274 -0.00796652 0 0 Z " fill="#7D7D7D" transform="translate(315.5,119.875)"/>
<path d="M0 0 C3.33096138 1.98455173 5.94218342 4.38928105 8.5 7.3125 C9.056875 7.93125 9.61375 8.55 10.1875 9.1875 C15.03699065 17.03905629 14.31192326 27.38787184 13.10546875 36.19140625 C11.46598777 42.95029879 7.81288326 47.88359392 2.5 52.3125 C-4.4963957 56.5468602 -11.87764288 57.66110593 -19.8125 55.7578125 C-26.66970697 53.25778912 -31.48672849 48.29795859 -35.5 42.3125 C-36.81946048 38.96270693 -37.29273194 35.89363144 -37.5 32.3125 C-37.56703125 31.57257813 -37.6340625 30.83265625 -37.703125 30.0703125 C-38.1226352 21.6501435 -35.95357305 12.82649004 -30.5 6.3125 C-22.51886774 -1.76596314 -10.781982 -5.06302197 0 0 Z M-23.75 11.5625 C-28.46809101 18.97664302 -28.797951 28.30592382 -26.96484375 36.7890625 C-25.59382682 40.78973484 -23.83357531 43.70814429 -20.5 46.3125 C-15.08818405 48.11643865 -8.90731114 48.23444895 -3.5625 46.1875 C1.56834172 41.52309844 3.993356 36.07673126 4.72265625 29.21875 C5.0002278 22.3639396 3.7659332 15.4379251 -0.3125 9.8125 C-8.12260337 4.45700055 -17.01093329 4.82343329 -23.75 11.5625 Z " fill="#7B7B7B" transform="translate(73.5,121.6875)"/>
<path d="M0 0 C1.45765791 2.38442939 2.34303292 4.26940518 3.25390625 6.859375 C3.65620705 7.90970917 3.65620705 7.90970917 4.06663513 8.98126221 C4.92177687 11.22955114 5.74242813 13.4887139 6.5625 15.75 C7.11689058 17.22610744 7.67351019 18.70137974 8.23242188 20.17578125 C9.32391842 23.06472699 10.40075898 25.95845098 11.46533203 28.85742188 C13.28111931 33.78970037 15.20154964 38.6790965 17.13256836 43.56738281 C18 46 18 46 18 48 C19.65 48.33 21.3 48.66 23 49 C23.1875 51.875 23.1875 51.875 23 55 C19.20821482 57.52785679 17.42272733 57.10251011 12.9375 56.75 C11.68839844 56.66234375 10.43929687 56.5746875 9.15234375 56.484375 C6 56 6 56 4 54 C4.375 50.875 4.375 50.875 5 48 C5.99 48 6.98 48 8 48 C7.505 46.906875 7.01 45.81375 6.5 44.6875 C5 41 5 41 5 38 C4.01 38.495 4.01 38.495 3 39 C1.62451844 39.08308638 0.24514204 39.10736016 -1.1328125 39.09765625 C-1.93847656 39.09443359 -2.74414062 39.09121094 -3.57421875 39.08789062 C-4.83685547 39.07532227 -4.83685547 39.07532227 -6.125 39.0625 C-7.39923828 39.05573242 -7.39923828 39.05573242 -8.69921875 39.04882812 C-10.79950909 39.03702874 -12.8997633 39.01909306 -15 39 C-15.66 41.97 -16.32 44.94 -17 48 C-16.01 48 -15.02 48 -14 48 C-13.95758277 50.33294775 -13.95907063 52.66702567 -14 55 C-15 56 -15 56 -18.59765625 56.09765625 C-20.08596867 56.0909822 -21.57426432 56.07902183 -23.0625 56.0625 C-24.20041992 56.05573242 -24.20041992 56.05573242 -25.36132812 56.04882812 C-27.24091871 56.0370068 -29.12046899 56.01907078 -31 56 C-32.125 50.25 -32.125 50.25 -31 48 C-30.36884277 47.92064209 -29.73768555 47.84128418 -29.08740234 47.75952148 C-26.70066069 47.16520923 -26.70066069 47.16520923 -25.71337891 44.35180664 C-25.34647949 43.19543701 -24.97958008 42.03906738 -24.6015625 40.84765625 C-24.17802236 39.56333154 -23.75250365 38.27965794 -23.32519531 36.99658203 C-23.1086731 36.33394348 -22.89215088 35.67130493 -22.66906738 34.98858643 C-20.78736433 29.39583262 -18.53017163 23.92904309 -16.375 18.4375 C-15.89804687 17.20708984 -15.42109375 15.97667969 -14.9296875 14.70898438 C-14.23359375 12.93297852 -14.23359375 12.93297852 -13.5234375 11.12109375 C-13.11013184 10.0633374 -12.69682617 9.00558105 -12.27099609 7.91577148 C-9.40847305 1.34890389 -7.64550491 -2.46179316 0 0 Z M-5 15 C-7.25861997 19.93387858 -9.40109514 24.80355921 -11 30 C-7.04 30 -3.08 30 1 30 C-0.12987847 24.35060767 -1.80288396 19.79567406 -5 15 Z " fill="#7D7D7D" transform="translate(277,121)"/>
<path d="M0 0 C3.2844404 0.57945005 4.87493896 1.51860416 7.171875 3.9140625 C7.74953613 4.50654785 8.32719727 5.0990332 8.92236328 5.70947266 C9.5254834 6.34159668 10.12860352 6.9737207 10.75 7.625 C12.01113234 8.91851058 13.27413553 10.21019995 14.5390625 11.5 C15.14137695 12.11488281 15.74369141 12.72976562 16.36425781 13.36328125 C18.211246 15.21137211 20.12838189 16.9400902 22.125 18.625 C25.71676181 21.6980391 29.16035763 24.90724889 32.5625 28.1875 C33.11244629 28.69941895 33.66239258 29.21133789 34.22900391 29.73876953 C35.75390625 31.23046875 35.75390625 31.23046875 38 34 C37.70452498 37.27800144 36.51958244 38.81417853 34.11328125 40.9609375 C33.51112793 41.50838623 32.90897461 42.05583496 32.28857422 42.61987305 C31.63646973 43.19906494 30.98436523 43.77825684 30.3125 44.375 C24.22959945 49.89336392 18.35941595 55.55639411 12.6574707 61.46826172 C9.68683194 64.50148229 6.93899177 67.25297209 3 69 C-0.2648928 68.78799397 -2.01722056 67.43721558 -4.3125 65.1875 C-4.84488281 64.68605469 -5.37726563 64.18460937 -5.92578125 63.66796875 C-7 62 -7 62 -6.9453125 60.05859375 C-5.66053828 57.26075898 -3.91066276 55.86049799 -1.5625 53.875 C2.23685551 50.56288172 5.95387893 47.20772545 9.5625 43.6875 C10.38878906 42.88699219 11.21507812 42.08648437 12.06640625 41.26171875 C14.49887331 38.48538072 14.49887331 38.48538072 15 35 C13.58324759 32.74218916 13.58324759 32.74218916 11.375 30.5625 C10.5603125 29.69496094 9.745625 28.82742187 8.90625 27.93359375 C6.7999979 25.77913518 4.64302921 23.68329719 2.46875 21.59765625 C1.87400879 21.02136475 1.27926758 20.44507324 0.66650391 19.85131836 C-0.51718743 18.71069674 -1.71274624 17.58224984 -2.92041016 16.46704102 C-4.5703125 14.8828125 -4.5703125 14.8828125 -7 12 C-6.57301723 8.13511723 -4.72561596 6.64302154 -2 4 C-0.76487921 1.86690808 -0.76487921 1.86690808 0 0 Z " fill="#0E0E0E" transform="translate(323,34)"/>
<path d="M0 0 C2.94084379 1.54665435 4.76636808 3.37024219 6.82714844 5.9609375 C6.66319369 10.59708064 4.58239347 12.67752253 1.35449219 15.82421875 C0.45537109 16.71044922 -0.44375 17.59667969 -1.37011719 18.50976562 C-2.31564453 19.42177734 -3.26117188 20.33378906 -4.23535156 21.2734375 C-5.19524978 22.21326026 -6.15424485 23.15400639 -7.11230469 24.09570312 C-9.45709068 26.39335774 -11.81069684 28.6811651 -14.17285156 30.9609375 C-12.20284048 34.47700899 -10.12228393 37.25929546 -7.26660156 40.09765625 C-6.5228125 40.83951172 -5.77902344 41.58136719 -5.01269531 42.34570312 C-4.24054688 43.10560547 -3.46839844 43.86550781 -2.67285156 44.6484375 C-1.90070313 45.41994141 -1.12855469 46.19144531 -0.33300781 46.98632812 C3.98751846 51.28317981 3.98751846 51.28317981 8.82714844 54.9609375 C8.25661178 58.73329179 6.66071423 60.58809801 4.01464844 63.2734375 C3.32757813 63.99144531 2.64050781 64.70945312 1.93261719 65.44921875 C-0.17285156 66.9609375 -0.17285156 66.9609375 -2.25878906 66.8203125 C-6.86213073 64.75350604 -10.11789066 61.10543675 -13.31738281 57.32421875 C-18.0270113 51.88917208 -23.20319836 46.94618097 -28.38378906 41.96484375 C-29.11597656 41.24683594 -29.84816406 40.52882812 -30.60253906 39.7890625 C-31.26495605 39.1487207 -31.92737305 38.50837891 -32.60986328 37.84863281 C-34.26461777 35.85010708 -34.77402636 34.49738136 -35.17285156 31.9609375 C-34.52848145 31.42919922 -34.52848145 31.42919922 -33.87109375 30.88671875 C-29.36504359 27.06340346 -25.17995998 23.00533635 -21.06347656 18.7734375 C-20.52525269 18.22260498 -19.98702881 17.67177246 -19.43249512 17.10424805 C-17.1863499 14.80390096 -14.9421123 12.50218696 -12.71630859 10.18212891 C-11.07245655 8.47201159 -9.41340194 6.777978 -7.75097656 5.0859375 C-6.9993222 4.29086792 -6.9993222 4.29086792 -6.23248291 3.47973633 C-2.73027924 -0.04908367 -2.73027924 -0.04908367 0 0 Z " fill="#121212" transform="translate(94.1728515625,37.0390625)"/>
<path d="M0 0 C1.56125851 0.00399299 3.12251789 0.01875614 4.68359375 0.04296875 C5.47701172 0.04361328 6.27042969 0.04425781 7.08789062 0.04492188 C12.98083853 0.09021353 12.98083853 0.09021353 14.12109375 1.23046875 C14.30859375 3.66796875 14.30859375 3.66796875 14.12109375 6.23046875 C13.46109375 6.89046875 12.80109375 7.55046875 12.12109375 8.23046875 C11.13109375 8.23046875 10.14109375 8.23046875 9.12109375 8.23046875 C9.12109375 21.43046875 9.12109375 34.63046875 9.12109375 48.23046875 C10.44109375 48.23046875 11.76109375 48.23046875 13.12109375 48.23046875 C13.74609375 51.10546875 13.74609375 51.10546875 14.12109375 54.23046875 C11.27495351 57.07660899 8.31740233 56.68625951 4.49609375 56.85546875 C3.43648437 56.91347656 3.43648437 56.91347656 2.35546875 56.97265625 C0.61110851 57.06694599 -1.13386316 57.14979766 -2.87890625 57.23046875 C-2.87890625 56.57046875 -2.87890625 55.91046875 -2.87890625 55.23046875 C-3.53890625 55.23046875 -4.19890625 55.23046875 -4.87890625 55.23046875 C-4.87890625 53.25046875 -4.87890625 51.27046875 -4.87890625 49.23046875 C-2.40390625 48.73546875 -2.40390625 48.73546875 0.12109375 48.23046875 C-0.04132813 47.15796875 -0.20375 46.08546875 -0.37109375 44.98046875 C-1.0659637 39.40186622 -1.02475053 33.84452728 -1.00390625 28.23046875 C-1.00777344 27.18890625 -1.01164063 26.14734375 -1.015625 25.07421875 C-1.00841536 19.36418518 -0.7340525 13.87714874 0.12109375 8.23046875 C-1.52890625 7.90046875 -3.17890625 7.57046875 -4.87890625 7.23046875 C-5.50390625 4.85546875 -5.50390625 4.85546875 -5.87890625 2.23046875 C-3.87890625 0.23046875 -3.87890625 0.23046875 0 0 Z " fill="#787878" transform="translate(225.87890625,120.76953125)"/>
<path d="M0 0 C3.80635497 3.20760251 7.54563567 6.40746109 11 10 C11.4125 9.2575 11.825 8.515 12.25 7.75 C13.93745618 5.09828315 15.70872089 3.13325986 18 1 C18.66 1.33 19.32 1.66 20 2 C19.154375 2.7425 18.30875 3.485 17.4375 4.25 C14.76375816 6.62486562 14.76375816 6.62486562 15.08178711 8.89648438 C16.31214404 11.71508457 18.0234744 13.2919415 20.25390625 15.40625 C21.10791016 16.23253906 21.96191406 17.05882813 22.84179688 17.91015625 C24.65764933 19.6386705 26.47536394 21.36523058 28.29492188 23.08984375 C29.14763672 23.91613281 30.00035156 24.74242188 30.87890625 25.59375 C31.6685376 26.34333984 32.45816895 27.09292969 33.27172852 27.86523438 C35 30 35 30 35 34 C35.99 34.495 35.99 34.495 37 35 C32.80828695 40.01824802 28.36249922 44.74573821 23.75 49.375 C23.23083008 49.89868164 22.71166016 50.42236328 22.17675781 50.96191406 C19.87666268 53.2530536 17.71112412 55.19258392 15 57 C15.47246642 61.25219775 17.77272377 63.37314725 21 66 C23.13803054 65.92393164 23.13803054 65.92393164 25 65 C25.99 65 26.98 65 28 65 C26.68 66.32 25.36 67.64 24 69 C18.98715141 67.63285948 14.90226521 64.2722786 12 60 C11.9609375 58.09765625 11.9609375 58.09765625 13 56 C14.791942 54.15278706 16.55895907 52.48618889 18.5 50.8125 C19.59008344 49.84548521 20.67860702 48.87670939 21.765625 47.90625 C22.30896484 47.42285156 22.85230469 46.93945312 23.41210938 46.44140625 C27.08355688 43.10865316 30.53449429 39.5442672 34 36 C29.34447261 38.45168232 26.03306549 41.70746268 22.38671875 45.41796875 C21.46509697 46.34383537 21.46509697 46.34383537 20.52485657 47.28840637 C18.57430348 49.2501045 16.63084194 51.21866056 14.6875 53.1875 C13.36179105 54.52324607 12.03562403 55.85853766 10.70898438 57.19335938 C7.46732811 60.45700069 4.23201153 63.72680828 1 67 C1 64 1 64 3.67797852 61.06079102 C4.90492592 59.8682356 6.13910253 58.68309034 7.37890625 57.50390625 C8.70532969 56.21054441 10.03149368 54.91691643 11.35742188 53.62304688 C13.46239918 51.58650411 15.57119469 49.55416329 17.68530273 47.52709961 C19.71889238 45.57175231 21.73700601 43.60144233 23.75390625 41.62890625 C24.71315758 40.72248131 24.71315758 40.72248131 25.69178772 39.79774475 C27.66290383 37.91893398 27.66290383 37.91893398 30 35 C29.57940399 30.71298702 27.064829 28.85586338 24 26 C23.175 25.154375 22.35 24.30875 21.5 23.4375 C19.10609032 21.00543753 19.10609032 21.00543753 16.625 19.1875 C13.67397534 16.72831278 11.33084194 14.01744602 8.84765625 11.09765625 C6.46672912 8.39457408 3.90189211 5.91827166 1.28515625 3.4453125 C0 2 0 2 0 0 Z M15 13 C16 15 16 15 16 15 Z M17 16 C17.66 16.66 18.32 17.32 19 18 C19.33 17.34 19.66 16.68 20 16 C19.01 16 18.02 16 17 16 Z M20 19 C20.66 19.66 21.32 20.32 22 21 C22 20.34 22 19.68 22 19 C21.34 19 20.68 19 20 19 Z " fill="#C7C7C7" transform="translate(302,36)"/>
<path d="M0 0 C4.1724106 0.51881113 6.25416821 1.71151274 9.3125 4.5625 C10.00988281 5.20316406 10.70726562 5.84382813 11.42578125 6.50390625 C11.94527344 6.99761719 12.46476562 7.49132813 13 8 C12.67 9.32 12.34 10.64 12 12 C11.401875 11.236875 10.80375 10.47375 10.1875 9.6875 C9.465625 8.800625 8.74375 7.91375 8 7 C7.505 6.38125 7.01 5.7625 6.5 5.125 C5.056055 3.76914038 5.056055 3.76914038 3.11248779 4.24671936 C0.68564186 5.11209528 -0.48513705 6.11071456 -2.29980469 7.92749023 C-2.92014587 8.54160263 -3.54048706 9.15571503 -4.17962646 9.78843689 C-4.83706848 10.45508865 -5.4945105 11.12174042 -6.171875 11.80859375 C-6.8542926 12.49051285 -7.53671021 13.17243195 -8.23980713 13.87501526 C-9.67894002 15.31648701 -11.11438471 16.76164906 -12.54638672 18.21020508 C-14.74677291 20.43423822 -16.96022974 22.64460045 -19.17578125 24.85351562 C-20.57110763 26.25441682 -21.96566582 27.65608365 -23.359375 29.05859375 C-24.02491394 29.72322128 -24.69045288 30.38784882 -25.37615967 31.07261658 C-25.98389221 31.68988113 -26.59162476 32.30714569 -27.21777344 32.94311523 C-28.02574371 33.7579966 -28.02574371 33.7579966 -28.85003662 34.58934021 C-30.21061674 35.95503123 -30.21061674 35.95503123 -30 38 C-30.99 38 -31.98 38 -33 38 C-29.87904935 41.14987306 -26.75257094 44.29420133 -23.625 47.4375 C-22.73554687 48.33533203 -21.84609375 49.23316406 -20.9296875 50.15820312 C-20.07890625 51.01220703 -19.228125 51.86621094 -18.3515625 52.74609375 C-17.56604004 53.53685303 -16.78051758 54.3276123 -15.97119141 55.14233398 C-14.13255698 57.05371018 -14.13255698 57.05371018 -12 58 C-12.33 59.32 -12.66 60.64 -13 62 C-13.57290771 61.26410645 -14.14581543 60.52821289 -14.73608398 59.77001953 C-16.79385737 57.25222628 -18.91688653 54.96854703 -21.22265625 52.6796875 C-22.00833984 51.89722656 -22.79402344 51.11476562 -23.60351562 50.30859375 C-24.41498047 49.50550781 -25.22644531 48.70242187 -26.0625 47.875 C-26.87783203 47.06417969 -27.69316406 46.25335938 -28.53320312 45.41796875 C-30.04451128 43.91535341 -31.5568469 42.41377022 -33.07055664 40.91357422 C-34.71786748 39.27981205 -36.3609006 37.64199363 -38 36 C-36.4608199 32.33247995 -34.24514548 30.01419427 -31.4296875 27.234375 C-30.53378906 26.34492187 -29.63789062 25.45546875 -28.71484375 24.5390625 C-27.77769531 23.61867188 -26.84054688 22.69828125 -25.875 21.75 C-24.92011363 20.80515144 -23.96568141 19.85984367 -23.01171875 18.9140625 C-20.67890913 16.60481662 -18.34155914 14.30036797 -16 12 C-15.34 12.33 -14.68 12.66 -14 13 C-19.94 18.94 -25.88 24.88 -32 31 C-31.01 30.67 -30.02 30.34 -29 30 C-28.67 29.34 -28.34 28.68 -28 28 C-27.34 28 -26.68 28 -26 28 C-26 27.34 -26 26.68 -26 26 C-24.56420898 24.58325195 -24.56420898 24.58325195 -22.55859375 22.92578125 C-17.82617333 18.90056406 -13.44223572 14.59014628 -9.0625 10.1875 C-8.29615234 9.42501953 -7.52980469 8.66253906 -6.74023438 7.87695312 C-6.01255859 7.14798828 -5.28488281 6.41902344 -4.53515625 5.66796875 C-3.879104 5.01078857 -3.22305176 4.3536084 -2.54711914 3.67651367 C-0.91729521 2.06619412 -0.91729521 2.06619412 0 0 Z " fill="#4C4C4C" transform="translate(90,34)"/>
<path d="M0 0 C0.90492188 0.02320313 1.80984375 0.04640625 2.7421875 0.0703125 C4.10730469 0.09738281 4.10730469 0.09738281 5.5 0.125 C6.19867188 0.14820313 6.89734375 0.17140625 7.6171875 0.1953125 C7.47598036 2.13315515 7.32905877 4.07058205 7.1796875 6.0078125 C7.09847656 7.08675781 7.01726562 8.16570312 6.93359375 9.27734375 C6.6171875 12.1953125 6.6171875 12.1953125 5.6171875 15.1953125 C5.9471875 15.5253125 6.2771875 15.8553125 6.6171875 16.1953125 C6.75833911 18.86590101 6.65965857 21.51963488 6.6171875 24.1953125 C4.04505616 25.81480261 2.94049591 26.23940001 -0.1328125 25.8203125 C-0.8753125 25.6140625 -1.6178125 25.4078125 -2.3828125 25.1953125 C-2.0528125 23.8753125 -1.7228125 22.5553125 -1.3828125 21.1953125 C-0.0628125 21.1953125 1.2571875 21.1953125 2.6171875 21.1953125 C2.6171875 20.5353125 2.6171875 19.8753125 2.6171875 19.1953125 C1.6271875 19.5253125 0.6371875 19.8553125 -0.3828125 20.1953125 C-2.5703125 19.7578125 -2.5703125 19.7578125 -4.3828125 19.1953125 C-4.43661828 16.40339045 -4.47638919 13.6124984 -4.5078125 10.8203125 C-4.52457031 10.02625 -4.54132813 9.2321875 -4.55859375 8.4140625 C-4.57616723 6.34039235 -4.48616418 4.26648009 -4.3828125 2.1953125 C-2.3828125 0.1953125 -2.3828125 0.1953125 0 0 Z M-0.3828125 4.1953125 C-0.3828125 6.1753125 -0.3828125 8.1553125 -0.3828125 10.1953125 C0.6071875 10.1953125 1.5971875 10.1953125 2.6171875 10.1953125 C2.6171875 8.5453125 2.6171875 6.8953125 2.6171875 5.1953125 C1.6271875 4.8653125 0.6371875 4.5353125 -0.3828125 4.1953125 Z " fill="#B4B4B4" transform="translate(193.3828125,192.8046875)"/>
<path d="M0 0 C1.98 0.495 1.98 0.495 4 1 C4.33 4.63 4.66 8.26 5 12 C5.33 8.04 5.66 4.08 6 0 C7.65 0.33 9.3 0.66 11 1 C11 6.94 11 12.88 11 19 C7.7 19 4.4 19 1 19 C-1.50413785 12.51870203 -0.82810601 6.81508864 0 0 Z " fill="#D5D5D5" transform="translate(245,193)"/>
<path d="M0 0 C7.75 -0.125 7.75 -0.125 10 1 C10 6.94 10 12.88 10 19 C8.68 19 7.36 19 6 19 C6 14.05 6 9.1 6 4 C5.34 4 4.68 4 4 4 C4 8.95 4 13.9 4 19 C2.35 18.67 0.7 18.34 -1 18 C-2.51708428 5.33029613 -2.51708428 5.33029613 0 0 Z " fill="#DADADA" transform="translate(176,193)"/>
<path d="M0 0 C0.8146875 0.00257813 1.629375 0.00515625 2.46875 0.0078125 C3.2834375 0.00523437 4.098125 0.00265625 4.9375 0 C6.96875 0.1328125 6.96875 0.1328125 7.96875 1.1328125 C8.05506874 2.47548663 8.07581473 3.82255572 8.06640625 5.16796875 C8.06318359 5.97685547 8.05996094 6.78574219 8.05664062 7.61914062 C8.04826172 8.46927734 8.03988281 9.31941406 8.03125 10.1953125 C8.02673828 11.04931641 8.02222656 11.90332031 8.01757812 12.78320312 C8.00575373 14.89976913 7.98781769 17.01629935 7.96875 19.1328125 C6.64875 19.1328125 5.32875 19.1328125 3.96875 19.1328125 C3.96875 14.1828125 3.96875 9.2328125 3.96875 4.1328125 C3.30875 4.1328125 2.64875 4.1328125 1.96875 4.1328125 C1.96875 9.0828125 1.96875 14.0328125 1.96875 19.1328125 C0.31875 18.8028125 -1.33125 18.4728125 -3.03125 18.1328125 C-3.05809312 15.32024969 -3.07801188 12.50794009 -3.09375 9.6953125 C-3.10212891 8.89287109 -3.11050781 8.09042969 -3.11914062 7.26367188 C-3.1277643 5.21986029 -3.0835315 3.17597348 -3.03125 1.1328125 C-2.03125 0.1328125 -2.03125 0.1328125 0 0 Z " fill="#B4B4B4" transform="translate(291.03125,192.8671875)"/>
<path d="M0 0 C0.66 0.33 1.32 0.66 2 1 C1.67 1.99 1.34 2.98 1 4 C-0.65 4 -2.3 4 -4 4 C-2.93824 7.37832726 -2.07897882 8.93042342 0.625 11.3125 C3.09770303 14.11055869 3.3846378 14.619271 3.5 18.125 C3 22 3 22 2 24 C-1.27967758 25.63983879 -4.37138689 25.17845638 -8 25 C-8.33 23.68 -8.66 22.36 -9 21 C-6.69 21 -4.38 21 -2 21 C-2.11784837 16.28606503 -3.50370759 14.24621971 -6.6875 11 C-8.6015625 8.96484375 -8.6015625 8.96484375 -10 7 C-9.5625 3.5625 -9.5625 3.5625 -8 1 C-5.26094655 -0.36952673 -3.02912668 -0.12621361 0 0 Z " fill="#A7A7A7" transform="translate(219,187)"/>
<path d="M0 0 C3.01665471 -0.38510486 5.0626549 -0.60664624 7.671875 1.08203125 C9.70007127 4.01098528 9.35971264 6.55060586 9.3125 10.0625 C9.30863281 11.31160156 9.30476562 12.56070313 9.30078125 13.84765625 C9 17 9 17 7 19 C3.5 19.3125 3.5 19.3125 0 19 C-2.38081145 15.42878282 -2.26906871 13.73325367 -2.25 9.5 C-2.25773438 7.78296875 -2.25773438 7.78296875 -2.265625 6.03125 C-2 3 -2 3 0 0 Z M3 4 C1.97296252 9.55493924 1.97296252 9.55493924 3 15 C3.66 15 4.32 15 5 15 C5 11.7 5 8.4 5 5 C4.34 4.67 3.68 4.34 3 4 Z " fill="#B5B5B5" transform="translate(226,193)"/>
<path d="M0 0 C3.0625 0.125 3.0625 0.125 5.0625 1.125 C6.09085363 4.21006088 6.19618434 6.3944272 6.1875 9.625 C6.19007812 10.5840625 6.19265625 11.543125 6.1953125 12.53125 C6.0625 15.125 6.0625 15.125 5.0625 18.125 C2.29999964 19.50625018 0.11518901 19.31579306 -2.9375 19.125 C-6.04586546 16.01663454 -5.8956605 12.39960226 -5.9375 8.125 C-4.61853141 0.19653325 -4.61853141 0.19653325 0 0 Z M-0.9375 4.125 C-0.9375 7.755 -0.9375 11.385 -0.9375 15.125 C-0.2775 15.125 0.3825 15.125 1.0625 15.125 C2.08953748 9.57006076 2.08953748 9.57006076 1.0625 4.125 C0.4025 4.125 -0.2575 4.125 -0.9375 4.125 Z " fill="#AEAEAE" transform="translate(98.9375,192.875)"/>
<path d="M0 0 C1.670625 0.061875 1.670625 0.061875 3.375 0.125 C5.3423374 3.41426371 5.61947228 5.88071581 5.5625 9.6875 C5.55283203 11.11255859 5.55283203 11.11255859 5.54296875 12.56640625 C5.375 15.125 5.375 15.125 4.375 18.125 C2.125 19.5 2.125 19.5 -0.625 20.125 C-3.26953125 19.13671875 -3.26953125 19.13671875 -5.625 17.125 C-6.06433956 14.36914278 -6.19425938 12.29327777 -6.0625 9.5625 C-6.05379883 8.53479492 -6.05379883 8.53479492 -6.04492188 7.48632812 C-5.91566991 2.21801806 -5.70720778 0.19680027 0 0 Z M-1.625 4.125 C-1.625 7.755 -1.625 11.385 -1.625 15.125 C-0.965 15.125 -0.305 15.125 0.375 15.125 C1.63526798 12.60446405 1.29374445 11.2707902 0.9375 8.5 C0.83566406 7.68273437 0.73382813 6.86546875 0.62890625 6.0234375 C0.54511719 5.39695313 0.46132813 4.77046875 0.375 4.125 C-0.285 4.125 -0.945 4.125 -1.625 4.125 Z " fill="#D4D4D4" transform="translate(280.625,192.875)"/>
<path d="M0 0 C7.71484375 -0.09765625 7.71484375 -0.09765625 10 0 C11 1 11 1 11.11352539 2.76586914 C11.10828857 3.51473389 11.10305176 4.26359863 11.09765625 5.03515625 C11.09443359 5.84404297 11.09121094 6.65292969 11.08789062 7.48632812 C11.07951172 8.33646484 11.07113281 9.18660156 11.0625 10.0625 C11.05798828 10.91650391 11.05347656 11.77050781 11.04882812 12.65039062 C11.03700373 14.76695663 11.01906769 16.88348685 11 19 C9.68 19 8.36 19 7 19 C7 14.05 7 9.1 7 4 C6.01 4.495 6.01 4.495 5 5 C4.52998967 8.27555608 4.52998967 8.27555608 4.375 12.0625 C4.30023438 13.35285156 4.22546875 14.64320313 4.1484375 15.97265625 C4.09945312 16.97167969 4.05046875 17.97070312 4 19 C2.68 18.67 1.36 18.34 0 18 C0 12.06 0 6.12 0 0 Z " fill="#CECECE" transform="translate(107,193)"/>
<path d="M0 0 C3.3 0 6.6 0 10 0 C11.65497356 3.30994713 11.10084335 6.99123 11.0625 10.625 C11.05798828 11.42679688 11.05347656 12.22859375 11.04882812 13.0546875 C11.03703168 15.03649006 11.01909605 17.01825433 11 19 C9.68 19 8.36 19 7 19 C7 14.05 7 9.1 7 4 C6.01 4 5.02 4 4 4 C4 8.95 4 13.9 4 19 C2.68 19 1.36 19 0 19 C0 12.73 0 6.46 0 0 Z " fill="#A8A8A8" transform="translate(121,193)"/>
<path d="M0 0 C1.4540625 0.2165625 1.4540625 0.2165625 2.9375 0.4375 C5.21812828 3.85844242 5.15675007 5.11937222 5.0625 9.125 C5.04445312 10.11886719 5.02640625 11.11273438 5.0078125 12.13671875 C4.97300781 13.27560547 4.97300781 13.27560547 4.9375 14.4375 C3.9475 14.4375 2.9575 14.4375 1.9375 14.4375 C1.9375 13.7775 1.9375 13.1175 1.9375 12.4375 C0.9475 12.1075 -0.0425 11.7775 -1.0625 11.4375 C-1.0625 12.7575 -1.0625 14.0775 -1.0625 15.4375 C0.9175 15.4375 2.8975 15.4375 4.9375 15.4375 C4.6075 16.7575 4.2775 18.0775 3.9375 19.4375 C0.5625 19.5625 0.5625 19.5625 -3.0625 19.4375 C-5.77782919 16.72217081 -5.55586435 14.84957633 -5.875 11.0625 C-5.98457031 9.92039063 -6.09414062 8.77828125 -6.20703125 7.6015625 C-5.99045018 2.86019307 -4.7904891 0.68435559 0 0 Z M-1.0625 4.4375 C-1.0625 5.4275 -1.0625 6.4175 -1.0625 7.4375 C-0.4025 7.1075 0.2575 6.7775 0.9375 6.4375 C0.2775 5.7775 -0.3825 5.1175 -1.0625 4.4375 Z " fill="#9A9A9A" transform="translate(140.0625,192.5625)"/>
<path d="M0 0 C0.33 1.32 0.66 2.64 1 4 C-0.65 4 -2.3 4 -4 4 C-4 9.61 -4 15.22 -4 21 C-2.02 21 -0.04 21 2 21 C1.67 22.32 1.34 23.64 1 25 C-2.00864103 25.96706319 -4.05360248 26.27677226 -7 25 C-10.84233058 19.74207395 -10.2441158 12.40201371 -9.50390625 6.24609375 C-9 4 -9 4 -7.25 1.375 C-4.60426893 -0.24183566 -3.04838235 -0.33870915 0 0 Z " fill="#C6C6C6" transform="translate(90,187)"/>
<path d="M0 0 C0.66 0.33 1.32 0.66 2 1 C-3.94 6.94 -9.88 12.88 -16 19 C-15.01 18.67 -14.02 18.34 -13 18 C-12.67 17.34 -12.34 16.68 -12 16 C-11.34 16.33 -10.68 16.66 -10 17 C-10.66 17.556875 -11.32 18.11375 -12 18.6875 C-14.25492211 20.84062308 -14.25492211 20.84062308 -14.25 23.75 C-14.1675 24.4925 -14.085 25.235 -14 26 C-14.99 26 -15.98 26 -17 26 C-13.87904935 29.14987306 -10.75257094 32.29420133 -7.625 35.4375 C-6.73554687 36.33533203 -5.84609375 37.23316406 -4.9296875 38.15820312 C-4.07890625 39.01220703 -3.228125 39.86621094 -2.3515625 40.74609375 C-1.56604004 41.53685303 -0.78051758 42.3276123 0.02880859 43.14233398 C1.86744302 45.05371018 1.86744302 45.05371018 4 46 C3.67 47.32 3.34 48.64 3 50 C2.42709229 49.26410645 1.85418457 48.52821289 1.26391602 47.77001953 C-0.79385737 45.25222628 -2.91688653 42.96854703 -5.22265625 40.6796875 C-6.00833984 39.89722656 -6.79402344 39.11476562 -7.60351562 38.30859375 C-8.41498047 37.50550781 -9.22644531 36.70242187 -10.0625 35.875 C-10.87783203 35.06417969 -11.69316406 34.25335938 -12.53320312 33.41796875 C-14.04451128 31.91535341 -15.5568469 30.41377022 -17.07055664 28.91357422 C-18.71786748 27.27981205 -20.3609006 25.64199363 -22 24 C-20.4608199 20.33247995 -18.24514548 18.01419427 -15.4296875 15.234375 C-14.08583984 13.90019531 -14.08583984 13.90019531 -12.71484375 12.5390625 C-11.77769531 11.61867188 -10.84054688 10.69828125 -9.875 9.75 C-8.92011363 8.80515144 -7.96568141 7.85984367 -7.01171875 6.9140625 C-4.67890913 4.60481662 -2.34155914 2.30036797 0 0 Z " fill="#C3C3C3" transform="translate(74,46)"/>
<path d="M0 0 C0 1.65 0 3.3 0 5 C-0.99 5.495 -0.99 5.495 -2 6 C-2 4.02 -2 2.04 -2 0 C-6.95 0 -11.9 0 -17 0 C-16.67 1.65 -16.34 3.3 -16 5 C-14.68 5.33 -13.36 5.66 -12 6 C-12 17.55 -12 29.1 -12 41 C-12.66 41 -13.32 41 -14 41 C-14.103125 40.360625 -14.20625 39.72125 -14.3125 39.0625 C-14.539375 38.381875 -14.76625 37.70125 -15 37 C-15.99 36.67 -16.98 36.34 -18 36 C-17.67 34.68 -17.34 33.36 -17 32 C-16.34 32.99 -15.68 33.98 -15 35 C-14.67 25.76 -14.34 16.52 -14 7 C-15.32 6.67 -16.64 6.34 -18 6 C-18 3.69 -18 1.38 -18 -1 C-11.91212295 -3.02929235 -5.90732295 -2.42351711 0 0 Z " fill="#C1C1C1" transform="translate(215,122)"/>
<path d="M0 0 C1.134375 0.020625 2.26875 0.04125 3.4375 0.0625 C3.4375 1.3825 3.4375 2.7025 3.4375 4.0625 C2.1175 4.0625 0.7975 4.0625 -0.5625 4.0625 C-0.129375 4.50980469 0.30375 4.95710937 0.75 5.41796875 C5.2407347 10.29332656 5.2407347 10.29332656 6.125 13.75 C5.10559537 17.17890648 3.49088405 18.29832255 0.4375 20.0625 C-2.375 19.8125 -2.375 19.8125 -4.5625 19.0625 C-4.5625 17.7425 -4.5625 16.4225 -4.5625 15.0625 C-2.9125 15.0625 -1.2625 15.0625 0.4375 15.0625 C0.4375 13.7425 0.4375 12.4225 0.4375 11.0625 C-0.201875 10.753125 -0.84125 10.44375 -1.5 10.125 C-3.5625 9.0625 -3.5625 9.0625 -4.5625 8.0625 C-4.6875 4.5625 -4.6875 4.5625 -4.5625 1.0625 C-3.5625 0.0625 -3.5625 0.0625 0 0 Z " fill="#C9C9C9" transform="translate(306.5625,192.9375)"/>
<path d="M0 0 C1.32 0 2.64 0 4 0 C4 0.66 4 1.32 4 2 C4.99 2 5.98 2 7 2 C7 3.32 7 4.64 7 6 C6.01 6.495 6.01 6.495 5 7 C5 10.3 5 13.6 5 17 C5.99 17 6.98 17 8 17 C8 18.32 8 19.64 8 21 C5.125 21.125 5.125 21.125 2 21 C-0.99924559 18.00075441 -0.5053797 14.53313682 -0.6875 10.5 C-0.73455078 9.71496094 -0.78160156 8.92992187 -0.83007812 8.12109375 C-1.13606973 2.27213946 -1.13606973 2.27213946 0 0 Z " fill="#A8A8A8" transform="translate(258,191)"/>
<path d="M0 0 C4.64073925 0.28125692 7.14028602 2.45124187 10.546875 5.33203125 C12.18304197 7.21010463 12.59909978 8.56822368 13 11 C12.34 11.33 11.68 11.66 11 12 C10.649375 11.29875 10.29875 10.5975 9.9375 9.875 C7.46892794 6.21195759 4.43179812 3.73603631 1 1 C0.8875293 1.59997803 0.77505859 2.19995605 0.65917969 2.81811523 C-0.41111125 6.36077823 -3.15823585 8.54787169 -5.75 11.0625 C-6.2759375 11.59166016 -6.801875 12.12082031 -7.34375 12.66601562 C-10.37907919 15.66002227 -13.32973937 17.8084479 -17 20 C-18.77113054 21.68615876 -20.4996712 23.41796088 -22.1875 25.1875 C-23.75365768 26.82879568 -25.34978233 28.44324599 -27 30 C-27.66 30 -28.32 30 -29 30 C-29.28875 30.598125 -29.5775 31.19625 -29.875 31.8125 C-31 34 -31 34 -33 37 C-33.33 36.34 -33.66 35.68 -34 35 C-31.83409661 31.29991505 -29.69369833 28.59664661 -26.3984375 25.84375 C-20.88863055 21.1125572 -15.88831129 15.90335319 -10.828125 10.70117188 C-9.74144531 9.59805664 -9.74144531 9.59805664 -8.6328125 8.47265625 C-7.98199707 7.80500244 -7.33118164 7.13734863 -6.66064453 6.44946289 C-5 5 -5 5 -3 5 C-2.67 4.01 -2.34 3.02 -2 2 C-1.34 2 -0.68 2 0 2 C0 1.34 0 0.68 0 0 Z " fill="#C7C7C7" transform="translate(65,34)"/>
<path d="M0 0 C4.75 0.875 4.75 0.875 7 2 C7 3.32 7 4.64 7 6 C6.34 6 5.68 6 5 6 C5 9.63 5 13.26 5 17 C5.99 17 6.98 17 8 17 C7.67 18.65 7.34 20.3 7 22 C4.0625 21.25 4.0625 21.25 1 20 C-0.15494938 17.03388001 -0.10575968 14.15315013 -0.0625 11 C-0.05347656 10.154375 -0.04445312 9.30875 -0.03515625 8.4375 C-0.02355469 7.633125 -0.01195312 6.82875 0 6 C0 4.68 0 3.36 0 2 C0 1.34 0 0.68 0 0 Z " fill="#B0B0B0" transform="translate(158,191)"/>
<path d="M0 0 C3.625 -0.1875 3.625 -0.1875 7 0 C7 1.32 7 2.64 7 4 C5.35 4 3.7 4 2 4 C2.33 7.63 2.66 11.26 3 15 C4.32 15 5.64 15 7 15 C7 16.32 7 17.64 7 19 C1.375 19.25 1.375 19.25 -2 17 C-2.36328125 13.84765625 -2.36328125 13.84765625 -2.3125 10.0625 C-2.30863281 8.81597656 -2.30476562 7.56945312 -2.30078125 6.28515625 C-2 3 -2 3 0 0 Z " fill="#BEBEBE" transform="translate(149,193)"/>
<path d="M0 0 C0.99 0.33 1.98 0.66 3 1 C3 8.92 3 16.84 3 25 C1.68 25 0.36 25 -1 25 C-1.84246352 19.85760267 -2.18267357 14.89522266 -2.1875 9.6875 C-2.19974609 8.97271484 -2.21199219 8.25792969 -2.22460938 7.52148438 C-2.2298177 5.67947476 -2.12280544 3.83791877 -2 2 C-1.34 1.34 -0.68 0.68 0 0 Z " fill="#949494" transform="translate(269,187)"/>
<path d="M0 0 C1.98 0.495 1.98 0.495 4 1 C4 8.92 4 16.84 4 25 C2.68 25 1.36 25 0 25 C-0.19628414 21.20873402 -0.38053896 17.41697828 -0.5625 13.625 C-0.61857422 12.54476562 -0.67464844 11.46453125 -0.73242188 10.3515625 C-0.78076172 9.3203125 -0.82910156 8.2890625 -0.87890625 7.2265625 C-0.9260376 6.27346191 -0.97316895 5.32036133 -1.02172852 4.33837891 C-1 2 -1 2 0 0 Z " fill="#A2A2A2" transform="translate(238,187)"/>
<path d="M0 0 C1.32 0 2.64 0 4 0 C4 7.92 4 15.84 4 24 C2.68 24 1.36 24 0 24 C-0.1958691 20.18788097 -0.38029565 16.37529466 -0.5625 12.5625 C-0.61857422 11.47388672 -0.67464844 10.38527344 -0.73242188 9.26367188 C-0.78076172 8.22919922 -0.82910156 7.19472656 -0.87890625 6.12890625 C-0.9260376 5.17056885 -0.97316895 4.21223145 -1.02172852 3.22485352 C-1 1 -1 1 0 0 Z " fill="#ADADAD" transform="translate(168,188)"/>
<path d="M0 0 C0.66 0.33 1.32 0.66 2 1 C1.01 2.485 1.01 2.485 0 4 C4.32967795 9.21135783 8.97040617 14.07944537 13.75 18.875 C14.31678467 19.44629639 14.88356934 20.01759277 15.4675293 20.60620117 C17.88112206 23.01118037 20.15646184 25.10430789 23 27 C22.42946335 30.77235429 20.83356579 32.62716051 18.1875 35.3125 C17.50042969 36.03050781 16.81335938 36.74851563 16.10546875 37.48828125 C14 39 14 39 11.87890625 38.890625 C9.10529711 37.57589967 7.76182085 35.45396475 6 33 C6.5775 33.309375 7.155 33.61875 7.75 33.9375 C9.9375891 34.97052819 11.60036692 35.70913538 14 36 C15.78431645 34.82050127 15.78431645 34.82050127 17.25 33.0625 C17.77078125 32.49660156 18.2915625 31.93070313 18.828125 31.34765625 C19.21484375 30.90292969 19.6015625 30.45820312 20 30 C18.43717018 26.23396131 16.0936525 23.86360849 13.2109375 21.015625 C12.51600693 20.32493927 12.51600693 20.32493927 11.80703735 19.62030029 C10.33434102 18.15874922 8.85482597 16.70432832 7.375 15.25 C6.37193678 14.25697389 5.36932743 13.26348911 4.3671875 12.26953125 C1.91669165 9.84102059 -0.5399667 7.41885325 -3 5 C-1.125 1.125 -1.125 1.125 0 0 Z " fill="#BDBDBD" transform="translate(80,65)"/>
<path d="M0 0 C3.2844404 0.57945005 4.87493896 1.51860416 7.171875 3.9140625 C7.74953613 4.50654785 8.32719727 5.0990332 8.92236328 5.70947266 C9.5254834 6.34159668 10.12860352 6.9737207 10.75 7.625 C12.01113234 8.91851058 13.27413553 10.21019995 14.5390625 11.5 C15.14137695 12.11488281 15.74369141 12.72976562 16.36425781 13.36328125 C18.211246 15.21137211 20.12838189 16.9400902 22.125 18.625 C25.71676181 21.6980391 29.16035763 24.90724889 32.5625 28.1875 C33.11244629 28.69941895 33.66239258 29.21133789 34.22900391 29.73876953 C35.75390625 31.23046875 35.75390625 31.23046875 38 34 C37.95566553 37.15328949 37.09479514 37.89658712 34.9375 40.25 C33.9784375 41.11625 33.9784375 41.11625 33 42 C32.01 41.505 32.01 41.505 31 41 C32.65 39.02 34.3 37.04 36 35 C30.59016431 29.50066336 25.20747057 24.08065603 19.30859375 19.1015625 C17.30459333 17.27727785 15.4205796 15.4053907 13.53515625 13.4609375 C12.91294189 12.82196533 12.29072754 12.18299316 11.6496582 11.5246582 C10.39842341 10.23225696 9.15579453 8.93145935 7.92260742 7.62182617 C7.34486572 7.0260376 6.76712402 6.43024902 6.171875 5.81640625 C5.6572168 5.27443604 5.14255859 4.73246582 4.61230469 4.17407227 C2.79349338 2.60756051 2.79349338 2.60756051 -1 3 C-0.67 2.01 -0.34 1.02 0 0 Z " fill="#C9C9C9" transform="translate(323,34)"/>
<path d="M0 0 C3.80635497 3.20760251 7.54563567 6.40746109 11 10 C11.4125 9.2575 11.825 8.515 12.25 7.75 C13.93745618 5.09828315 15.70872089 3.13325986 18 1 C18.66 1.33 19.32 1.66 20 2 C19.154375 2.7425 18.30875 3.485 17.4375 4.25 C14.79791963 6.63740856 14.79791963 6.63740856 14.9375 9 C16.3260917 11.61381967 18.07277622 13.76193368 20 16 C19.34 16.33 18.68 16.66 18 17 C19.32 18.32 20.64 19.64 22 21 C21.67 21.66 21.34 22.32 21 23 C16.46129888 19.29493786 12.55996323 15.4961527 8.77734375 11.02734375 C6.42485456 8.34395498 3.87744337 5.89516627 1.28515625 3.4453125 C0 2 0 2 0 0 Z M15 13 C16 15 16 15 16 15 Z " fill="#CECECE" transform="translate(302,36)"/>
<path d="M0 0 C1.32 0.33 2.64 0.66 4 1 C3.01 1 2.02 1 1 1 C1.00222061 1.58659897 1.00444122 2.17319794 1.00672913 2.77757263 C1.0287821 8.86025384 1.04390664 14.94292377 1.05493164 21.02563477 C1.05997325 23.29842591 1.06680637 25.5712138 1.07543945 27.84399414 C1.08751261 31.10303551 1.09322987 34.36203417 1.09765625 37.62109375 C1.10281754 38.64400009 1.10797882 39.66690643 1.11329651 40.72080994 C1.11337204 41.66170975 1.11344757 42.60260956 1.11352539 43.57202148 C1.115746 44.40475082 1.11796661 45.23748016 1.12025452 46.09544373 C1 48 1 48 0 49 C-6.38873239 49.47323944 -6.38873239 49.47323944 -8.9375 47.5 C-9.288125 47.005 -9.63875 46.51 -10 46 C-9.67 45.34 -9.34 44.68 -9 44 C-8.01 44.66 -7.02 45.32 -6 46 C-4.02 46.33 -2.04 46.66 0 47 C0 31.49 0 15.98 0 0 Z " fill="#C6C6C6" transform="translate(209,128)"/>
<path d="M0 0 C0 5.28 0 10.56 0 16 C-0.66 16 -1.32 16 -2 16 C-2 11.05 -2 6.1 -2 1 C-3.32 1 -4.64 1 -6 1 C-6 5.95 -6 10.9 -6 16 C-6.66 16 -7.32 16 -8 16 C-8 10.72 -8 5.44 -8 0 C-5 -1 -5 -1 0 0 Z " fill="#7C7C7C" transform="translate(185,195)"/>
<path d="M0 0 C2.64 0 5.28 0 8 0 C9.50156874 3.00313748 9.09281204 5.79067522 9.0625 9.125 C9.05347656 10.40632812 9.04445313 11.68765625 9.03515625 13.0078125 C9.02355469 13.99523437 9.01195313 14.98265625 9 16 C8.01 16 7.02 16 6 16 C6 11.05 6 6.1 6 1 C4.68 1.33 3.36 1.66 2 2 C1.67 6.62 1.34 11.24 1 16 C0.67 16 0.34 16 0 16 C0 10.72 0 5.44 0 0 Z " fill="#7B7B7B" transform="translate(109,195)"/>
<path d="M0 0 C2.37254954 2.37254954 3.98483473 4.28496054 5.75 7.0625 C6.19859375 7.75472656 6.6471875 8.44695312 7.109375 9.16015625 C7.40328125 9.76730469 7.6971875 10.37445313 8 11 C7.67 11.66 7.34 12.32 7 13 C5.35 10.69 3.7 8.38 2 6 C1.67 15.57 1.34 25.14 1 35 C2.65 35.33 4.3 35.66 6 36 C6 37.98 6 39.96 6 42 C5.67 42 5.34 42 5 42 C4.67 40.35 4.34 38.7 4 37 C2.68 36.67 1.36 36.34 0 36 C0 24.12 0 12.24 0 0 Z " fill="#C2C2C2" transform="translate(175,134)"/>
<path d="M0 0 C4.64073925 0.28125692 7.14028602 2.45124187 10.546875 5.33203125 C12.18304197 7.21010463 12.59909978 8.56822368 13 11 C12.01 11.495 12.01 11.495 11 12 C10.649375 11.29875 10.29875 10.5975 9.9375 9.875 C7.46892794 6.21195759 4.43179812 3.73603631 1 1 C0.83673218 1.8967041 0.83673218 1.8967041 0.67016602 2.81152344 C-0.08011335 5.26161605 -0.89909811 6.24965291 -2.72265625 8.015625 C-3.26083984 8.54414062 -3.79902344 9.07265625 -4.35351562 9.6171875 C-4.91748047 10.15601563 -5.48144531 10.69484375 -6.0625 11.25 C-6.63033203 11.80429687 -7.19816406 12.35859375 -7.78320312 12.9296875 C-9.18212469 14.29334214 -10.59019114 15.64760417 -12 17 C-12.66 16.67 -13.32 16.34 -14 16 C-13.30132812 15.32453125 -12.60265625 14.6490625 -11.8828125 13.953125 C-10.97273438 13.06109375 -10.06265625 12.1690625 -9.125 11.25 C-8.22007813 10.36828125 -7.31515625 9.4865625 -6.3828125 8.578125 C-4.35457004 6.38363316 -3.11119587 4.7332864 -2 2 C-1.34 2 -0.68 2 0 2 C0 1.34 0 0.68 0 0 Z " fill="#7F7F7F" transform="translate(65,34)"/>
<path d="M0 0 C4.55555556 0.55555556 4.55555556 0.55555556 6 2 C6.07244053 4.01964199 6.08377188 6.04167124 6.0625 8.0625 C6.05347656 9.16722656 6.04445313 10.27195313 6.03515625 11.41015625 C6.02355469 12.26480469 6.01195312 13.11945313 6 14 C5.67 14 5.34 14 5 14 C4.67 10.37 4.34 6.74 4 3 C3.01 3 2.02 3 1 3 C0.91917906 4.95766281 0.86089222 6.91626728 0.8125 8.875 C0.77769531 9.96554688 0.74289062 11.05609375 0.70703125 12.1796875 C0.80371094 13.11039063 0.90039062 14.04109375 1 15 C1.99 15.66 2.98 16.32 4 17 C2.02 17 0.04 17 -2 17 C-2.05383848 14.54137599 -2.09359038 12.0839245 -2.125 9.625 C-2.14175781 8.92632812 -2.15851563 8.22765625 -2.17578125 7.5078125 C-2.19344267 5.67102514 -2.10303261 3.83398037 -2 2 C-1.34 1.34 -0.68 0.68 0 0 Z " fill="#707070" transform="translate(278,194)"/>
<path d="M0 0 C0 3 0 3 -1.37695312 4.7175293 C-2.00537109 5.33023682 -2.63378906 5.94294434 -3.28125 6.57421875 C-3.95800781 7.24130859 -4.63476562 7.90839844 -5.33203125 8.59570312 C-6.04746094 9.28599609 -6.76289062 9.97628906 -7.5 10.6875 C-8.57314453 11.7403418 -8.57314453 11.7403418 -9.66796875 12.81445312 C-11.43879577 14.54986361 -13.21623456 16.2779073 -15 18 C-13.2788173 20.96285702 -11.54824032 23.71420719 -9.3125 26.3125 C-8.549375 27.199375 -7.78625 28.08625 -7 29 C-10.9298688 27.3373632 -13.95703183 24.9738098 -17 22 C-17.6875 19.5 -17.6875 19.5 -17 17 C-15.37667952 15.29108626 -13.70009351 13.63255555 -12 12 C-10.95984339 10.96464132 -9.92215425 9.92679889 -8.88671875 8.88671875 C-5.92447917 5.92447917 -2.96223958 2.96223958 0 0 Z " fill="#545454" transform="translate(50,51)"/>
<path d="M0 0 C0.66 0.33 1.32 0.66 2 1 C1.67 1.99 1.34 2.98 1 4 C-0.65 4 -2.3 4 -4 4 C-2.7508258 7.45925163 -1.32472205 10.14693203 1 13 C-1.86095641 11.7175023 -4.11365918 10.54656011 -6 8 C-6.1875 5.3125 -6.1875 5.3125 -6 3 C-6.66 3 -7.32 3 -8 3 C-8 4.65 -8 6.3 -8 8 C-8.66 7.34 -9.32 6.68 -10 6 C-7.85674632 0.02950759 -6.26642586 -0.26110108 0 0 Z " fill="#D5D5D5" transform="translate(219,187)"/>
<path d="M0 0 C0.66 0 1.32 0 2 0 C2 4.62 2 9.24 2 14 C3.32 13.67 4.64 13.34 6 13 C6.33 8.71 6.66 4.42 7 0 C7.33 0 7.66 0 8 0 C8 5.28 8 10.56 8 16 C5.69 16 3.38 16 1 16 C-0.50156874 12.99686252 -0.09281204 10.20932478 -0.0625 6.875 C-0.05347656 5.59367188 -0.04445312 4.31234375 -0.03515625 2.9921875 C-0.02355469 2.00476563 -0.01195312 1.01734375 0 0 Z " fill="#6F6F6F" transform="translate(246,195)"/>
<path d="M0 0 C0.66 0 1.32 0 2 0 C6.54083805 10.02768402 5.71955571 18.79336202 2 29 C1.34 29 0.68 29 0 29 C0.33 27.96875 0.66 26.9375 1 25.875 C3.08525288 17.51909382 3.07918176 8.08285213 0 0 Z " fill="#E3E3E3" transform="translate(220,55)"/>
<path d="M0 0 C0.99 0.33 1.98 0.66 3 1 C3 8.92 3 16.84 3 25 C1.68 24.67 0.36 24.34 -1 24 C-0.01 24 0.98 24 2 24 C2 18.39 2 12.78 2 7 C1.01 7 0.02 7 -1 7 C-1.625 4.625 -1.625 4.625 -2 2 C-1.34 1.34 -0.68 0.68 0 0 Z " fill="#EDEDED" transform="translate(269,187)"/>
<path d="M0 0 C2.0625 0.4375 2.0625 0.4375 4 1 C4.24887295 3.10192697 4.4734719 5.20673964 4.6875 7.3125 C4.81511719 8.48425781 4.94273437 9.65601563 5.07421875 10.86328125 C5 14 5 14 3.51953125 15.91796875 C2.76736328 16.45357422 2.76736328 16.45357422 2 17 C1.01 16.34 0.02 15.68 -1 15 C-1 14.34 -1 13.68 -1 13 C-1.01160156 12.08089844 -1.02320313 11.16179687 -1.03515625 10.21484375 C-1.04417969 9.13332031 -1.05320312 8.05179688 -1.0625 6.9375 C-1.07410156 5.85339844 -1.08570313 4.76929688 -1.09765625 3.65234375 C-1 1 -1 1 0 0 Z M0 1 C0 4.63 0 8.26 0 12 C0.66 12 1.32 12 2 12 C3.26026798 9.47946405 2.91874445 8.1457902 2.5625 5.375 C2.46066406 4.55773437 2.35882813 3.74046875 2.25390625 2.8984375 C2.17011719 2.27195313 2.08632813 1.64546875 2 1 C1.34 1 0.68 1 0 1 Z " fill="#BCBCBC" transform="translate(279,196)"/>
<path d="M0 0 C0.33 0 0.66 0 1 0 C1 3.63 1 7.26 1 11 C0.01 11 -0.98 11 -2 11 C-2 10.34 -2 9.68 -2 9 C-2.99 8.67 -3.98 8.34 -5 8 C-5 9.32 -5 10.64 -5 12 C-3.02 12 -1.04 12 1 12 C0.67 13.32 0.34 14.64 0 16 C-2.31 16 -4.62 16 -7 16 C-6.34 15.34 -5.68 14.68 -5 14 C-5.33 13.67 -5.66 13.34 -6 13 C-6.04080783 11.00041636 -6.04254356 8.99954746 -6 7 C-4.02 7 -2.04 7 0 7 C0 4.69 0 2.38 0 0 Z " fill="#DBDBDB" transform="translate(144,196)"/>
<path d="M0 0 C0.33 0 0.66 0 1 0 C1.33 5.61 1.66 11.22 2 17 C3.65 17 5.3 17 7 17 C7 17.66 7 18.32 7 19 C1.25 19.125 1.25 19.125 -1 18 C-1.02698422 15.56242587 -1.04683099 13.12515085 -1.0625 10.6875 C-1.07087891 9.99720703 -1.07925781 9.30691406 -1.08789062 8.59570312 C-1.10307906 5.4516975 -1.00193327 3.00579981 0 0 Z " fill="#6F6F6F" transform="translate(83,192)"/>
<path d="M0 0 C0.99 0 1.98 0 3 0 C3 1.32 3 2.64 3 4 C2.01 4.495 2.01 4.495 1 5 C1 8.3 1 11.6 1 15 C1.99 15 2.98 15 4 15 C4 16.32 4 17.64 4 19 C2.02 19 0.04 19 -2 19 C-1.34 18.34 -0.68 17.68 0 17 C-0.33 16.67 -0.66 16.34 -1 16 C-1.07258946 13.81360547 -1.08373783 11.62499611 -1.0625 9.4375 C-1.05347656 8.23996094 -1.04445313 7.04242188 -1.03515625 5.80859375 C-1.02355469 4.88175781 -1.01195312 3.95492187 -1 3 C-0.01 3 0.98 3 2 3 C2 2.34 2 1.68 2 1 C1.34 0.67 0.68 0.34 0 0 Z " fill="#D3D3D3" transform="translate(262,193)"/>
<path d="M0 0 C0.33 0 0.66 0 1 0 C1 10.89 1 21.78 1 33 C0.34 32.67 -0.32 32.34 -1 32 C-1 31.34 -1 30.68 -1 30 C-1.99 29.67 -2.98 29.34 -4 29 C-3.67 27.68 -3.34 26.36 -3 25 C-2.34 25.99 -1.68 26.98 -1 28 C-0.67 18.76 -0.34 9.52 0 0 Z " fill="#EBEBEB" transform="translate(201,129)"/>
<path d="M0 0 C5.61 0 11.22 0 17 0 C17 7.875 17 7.875 16 11 C15.34 9.68 14.68 8.36 14 7 C13.34 7 12.68 7 12 7 C12 6.34 12 5.68 12 5 C13.32 5 14.64 5 16 5 C16 3.68 16 2.36 16 1 C11.05 1 6.1 1 1 1 C0.67 2.32 0.34 3.64 0 5 C0 3.35 0 1.7 0 0 Z " fill="#888888" transform="translate(307,122)"/>
<path d="M0 0 C1.2065625 0.0309375 1.2065625 0.0309375 2.4375 0.0625 C2.4375 0.7225 2.4375 1.3825 2.4375 2.0625 C1.1175 2.0625 -0.2025 2.0625 -1.5625 2.0625 C-0.31273244 5.71566671 0.10848753 6.84315836 3.4375 9.0625 C3.625 11.6875 3.625 11.6875 3.4375 14.0625 C2.839375 13.299375 2.24125 12.53625 1.625 11.75 C-0.36650177 9.14042652 -0.36650177 9.14042652 -2.3125 7.5625 C-3.5625 6.0625 -3.5625 6.0625 -3.8125 3.4375 C-3.4650795 0.13700523 -3.34579251 0.0816047 0 0 Z " fill="#737373" transform="translate(306.5625,193.9375)"/>
<path d="M0 0 C5.75 -0.125 5.75 -0.125 8 1 C8.04254356 2.99954746 8.04080783 5.00041636 8 7 C7 8 7 8 3.9375 8.0625 C2.968125 8.041875 1.99875 8.02125 1 8 C1.639375 7.7525 2.27875 7.505 2.9375 7.25 C5.18741541 6.18437567 5.18741541 6.18437567 5.75 3.875 C5.8325 3.25625 5.915 2.6375 6 2 C4.02 2 2.04 2 0 2 C0 1.34 0 0.68 0 0 Z " fill="#737373" transform="translate(191,209)"/>
<path d="M0 0 C0.99 0.33 1.98 0.66 3 1 C2.50628906 1.45890625 2.01257813 1.9178125 1.50390625 2.390625 C0.86324219 3.00421875 0.22257812 3.6178125 -0.4375 4.25 C-1.07558594 4.85328125 -1.71367187 5.4565625 -2.37109375 6.078125 C-4.08516306 8.10048016 -4.59358878 9.41270605 -5 12 C-5.66 11.34 -6.32 10.68 -7 10 C-6.67861144 6.63567724 -5.35354137 5.01182596 -2.9375 2.75 C-2.38964844 2.22921875 -1.84179688 1.7084375 -1.27734375 1.171875 C-0.64505859 0.59179688 -0.64505859 0.59179688 0 0 Z " fill="#252525" transform="translate(323,36)"/>
<path d="M0 0 C2.96865509 2.54456151 4.3619751 5.48994665 6 9 C6.99 8.34 7.98 7.68 9 7 C8.34 8.98 7.68 10.96 7 13 C4.04415849 10.24800963 1.81234853 7.62469707 0 4 C0 2.68 0 1.36 0 0 Z " fill="#D6D6D6" transform="translate(119,139)"/>
<path d="M0 0 C0.66 0.33 1.32 0.66 2 1 C0.92492371 2.29854721 -0.16043736 3.58858361 -1.25 4.875 C-1.85328125 5.59429687 -2.4565625 6.31359375 -3.078125 7.0546875 C-4.97087634 8.97052118 -6.53657727 9.96449045 -9 11 C-7.44095325 7.17324889 -4.96833913 4.81992217 -2 2 C-1.34 1.34 -0.68 0.68 0 0 Z " fill="#CACACA" transform="translate(175,40)"/>
<path d="M0 0 C6.27 0 12.54 0 19 0 C19 0.33 19 0.66 19 1 C12.06918811 2.88101367 6.88131426 3.16079916 0 1 C0 0.67 0 0.34 0 0 Z " fill="#DFDFDF" transform="translate(186,103)"/>
<path d="M0 0 C2.60018816 3.90028225 2.15085514 7.47434569 2 12 C1.34 11.67 0.68 11.34 0 11 C0.33 9.02 0.66 7.04 1 5 C-1.31 4.67 -3.62 4.34 -6 4 C-6 3.34 -6 2.68 -6 2 C-4.02 1.34 -2.04 0.68 0 0 Z " fill="#E2E2E2" transform="translate(198,205)"/>
<path d="M0 0 C1.65 0 3.3 0 5 0 C7.10428384 5.12919186 7.21755666 9.5610835 7 15 C6.67 15 6.34 15 6 15 C5.85304687 13.75283203 5.85304687 13.75283203 5.703125 12.48046875 C5.47882813 10.85044922 5.47882813 10.85044922 5.25 9.1875 C5.11078125 8.10855469 4.9715625 7.02960938 4.828125 5.91796875 C3.87964785 2.57592898 2.95126765 1.70957577 0 0 Z " fill="#7B7B7B" transform="translate(227,194)"/>
<path d="M0 0 C0.66 0 1.32 0 2 0 C2.433125 1.36125 2.433125 1.36125 2.875 2.75 C3.76531776 5.32202908 4.71494413 7.61346766 6 10 C4.02 9.01 2.04 8.02 0 7 C0 4.69 0 2.38 0 0 Z " fill="#797979" transform="translate(211,190)"/>
<path d="M0 0 C2.31 0 4.62 0 7 0 C7 3.63 7 7.26 7 11 C6.67 11 6.34 11 6 11 C6 8.36 6 5.72 6 3 C4.02 2.34 2.04 1.68 0 1 C0 0.67 0 0.34 0 0 Z " fill="#888888" transform="translate(192,194)"/>
<path d="M0 0 C2.31 0 4.62 0 7 0 C7.33 0.66 7.66 1.32 8 2 C2.25 3.125 2.25 3.125 0 2 C0 3.65 0 5.3 0 7 C-0.66 6.34 -1.32 5.68 -2 5 C-1.34 3.35 -0.68 1.7 0 0 Z " fill="#ACACAC" transform="translate(211,188)"/>
<path d="M0 0 C2.03819846 2.03819846 2.67841059 3.29417798 3.6875 5.9375 C3.95949219 6.62714844 4.23148437 7.31679687 4.51171875 8.02734375 C5 10 5 10 4 13 C0.25474201 9.25474201 0.31090051 5.01729091 0 0 Z " fill="#CACACA" transform="translate(287,149)"/>
<path d="M0 0 C1.32176485 0.90325616 2.63215066 1.82317903 3.9375 2.75 C4.66839844 3.26046875 5.39929688 3.7709375 6.15234375 4.296875 C8.20805399 6.19177915 8.62669176 7.27425729 9 10 C8.01 10.495 8.01 10.495 7 11 C6.38125 9.88625 6.38125 9.88625 5.75 8.75 C4.10733538 5.94915692 4.10733538 5.94915692 1.8125 3.8125 C1.214375 3.214375 0.61625 2.61625 0 2 C0 1.34 0 0.68 0 0 Z " fill="#CBCBCB" transform="translate(94,35)"/>
<path d="M0 0 C0.33 0 0.66 0 1 0 C1.25 7.625 1.25 7.625 -1 11 C-1.66 11 -2.32 11 -3 11 C-2.01 7.37 -1.02 3.74 0 0 Z " fill="#C0C0C0" transform="translate(77,153)"/>
<path d="M0 0 C1.98 0.66 3.96 1.32 6 2 C6 2.66 6 3.32 6 4 C4.02 4 2.04 4 0 4 C0 2.68 0 1.36 0 0 Z " fill="#959595" transform="translate(96,208)"/>
<path d="M0 0 C1.32 0 2.64 0 4 0 C4 0.66 4 1.32 4 2 C3.01 2.33 2.02 2.66 1 3 C0.67 5.31 0.34 7.62 0 10 C-0.33 10 -0.66 10 -1 10 C-1.02689216 8.52093108 -1.04634621 7.04172517 -1.0625 5.5625 C-1.07410156 4.73878906 -1.08570313 3.91507813 -1.09765625 3.06640625 C-1 1 -1 1 0 0 Z " fill="#717171" transform="translate(150,194)"/>
<path d="M0 0 C0.99 0.33 1.98 0.66 3 1 C3 2.32 3 3.64 3 5 C1.68 4.67 0.36 4.34 -1 4 C-0.67 2.68 -0.34 1.36 0 0 Z " fill="#BBBBBB" transform="translate(269,187)"/>
<path d="M0 0 C0.66 0 1.32 0 2 0 C1.39009109 3.55780196 0.4216319 6.6828589 -1 10 C-2.46726798 6.18510326 -1.43336419 3.70988378 0 0 Z " fill="#D1D1D1" transform="translate(271,132)"/>
</svg>
